<svg xmlns="http://www.w3.org/2000/svg" viewBox="0 0 1067.71 484.63"><defs><style>.cls-1{fill:#6c63ff;opacity:0.1;}.cls-1,.cls-12,.cls-2{isolation:isolate;}.cls-2{fill:#c8a092;opacity:0.2;}.cls-3{fill:none;stroke:#3f3d56;stroke-miterlimit:10;stroke-width:2px;}.cls-4{fill:#00bfa6;}.cls-10,.cls-5{opacity:0.1;}.cls-6{fill:#cbcbcb;}.cls-7{fill:#efefe4;}.cls-8{fill:#efd8cf;}.cls-9{fill:#010606;}.cls-10{fill:#280000;}.cls-11{fill:#3f3d56;}.cls-12{fill:#1f9990;}</style></defs><g id="Capa_27" data-name="Capa 27"><g id="Capa_28" data-name="Capa 28"><path class="cls-1" d="M172.66,384.08l983.14-8.39" transform="translate(-88.09 -133.71)"/><path class="cls-1" d="M88.09,552.18l322.11,48" transform="translate(-88.09 -133.71)"/><path class="cls-1" d="M1152.64,381.47,112.45,490.65" transform="translate(-88.09 -133.71)"/><path class="cls-2" d="M885.15,282.35a174.26,174.26,0,0,0-29-45.4l-401.73-3.9,330.76-45.71a190.57,190.57,0,0,0-67.11-13.1c-65-51.13-156.37-54.18-224.71-7.49a189.81,189.81,0,0,0-86-20.38c-89.25,0-163.63,60.83-180.32,141.5Z" transform="translate(-88.09 -133.71)"/><path class="cls-2" d="M895.55,350A168.38,168.38,0,0,0,883,286.16L186.78,358.07a170.4,170.4,0,0,0-16.31,40.53l215.61,31.61L165.55,453.27c6.63,91.32,86.2,163.44,183.41,163.44,48.92,0,93.37-18.28,126.32-48.09,33,30.37,77.92,49,127.37,49,73.37,0,136.69-41.11,166.19-100.54C828,498.67,873.92,452.24,889.69,394.2L617,352.62h278.5C895.51,351.75,895.55,350.88,895.55,350Z" transform="translate(-88.09 -133.71)"/></g><line class="cls-3" x1="157.15" y1="483.63" x2="727.78" y2="483.63"/></g><g id="Capa_17" data-name="Capa 17"><g id="Capa_18" data-name="Capa 18"><path class="cls-4" d="M476.23,464.4a8.61,8.61,0,0,1,3.37-3c4.88-2.33,10.46,1.59,12.25,2.85,2.24,1.58,5.19,3.65,5.61,7.21.26,2.13-.35,5.17-2.06,6.15S489.39,478.55,476.23,464.4Z" transform="translate(-88.09 -133.71)"/></g><path class="cls-5" d="M472.78,522.53c-4.92,2.7-9.29-4.92-4.38-7.61a83.39,83.39,0,0,0,17.69-12.77,14.41,14.41,0,0,0,3.84-6.08,40.34,40.34,0,0,0,1.73-5.61l-.36-.29a3.25,3.25,0,0,1-.9-1.42,4.09,4.09,0,0,1,0-3.4,3.2,3.2,0,0,1,.9-1.42l.29-.3a4.29,4.29,0,0,1,1.91-1.13h0a4.12,4.12,0,0,1,2.35-4.94l-.2-.4c-3.69-7.59-10.94-10.56-15.94-12.61-1-.39-1.92-.78-2.9-1.14a3.71,3.71,0,0,1-2.87,2.37c-5.51,1.2-10.8,3.16-16.51,3a5.41,5.41,0,0,1-.83-.09L447,482.56a11.22,11.22,0,0,1-.44,9.11,4.55,4.55,0,0,1,1.46,1,4.63,4.63,0,0,1,1.27,3.12,8.28,8.28,0,0,1-.36,2.85,5.75,5.75,0,0,1-1.47,2.42,5.17,5.17,0,0,1-2.54,1.38,4.28,4.28,0,0,1-2.3,0l-1-.44a3.81,3.81,0,0,1-1.22-1.11,3.54,3.54,0,0,1-.73.06h-.14a4.39,4.39,0,0,1-1.31-.22l-.47.07a3.33,3.33,0,0,1-1.67-.38,3.49,3.49,0,0,1-.7-.34c-14.76,25.34-25.26,44.44-28.8,51.87-.85,1.79-2.55,5.52-1.18,9,.37.93,1.36,2.89,7.09,6a95.94,95.94,0,0,0,10,4s6.18,3.24,10.34,2,10.57-11.09,10.57-11.09l30.73-40.06C473.64,522,473.22,522.29,472.78,522.53Z" transform="translate(-88.09 -133.71)"/><g id="Capa_19" data-name="Capa 19"><path class="cls-6" d="M486.33,461.27l57.73-81.78a5.71,5.71,0,0,1,8-1.51,5.84,5.84,0,0,1,.48.39l.38.38a5.56,5.56,0,0,1,.32,6.85l-57,82.62c-.59-1.12-1.57-2.28-4.39-4C489.84,463,487.49,461.41,486.33,461.27Z" transform="translate(-88.09 -133.71)"/></g><g id="Capa_21" data-name="Capa 21"><path class="cls-6" d="M398.5,572.75c.75-.15,1.54-.29,2.38-.4s1.56-.18,2.29-.23l14,10.28a6.5,6.5,0,0,1,.62,5.71,13.8,13.8,0,0,1-4.49,1c-7.24.37-15.61-5.21-15.94-11.66A8.81,8.81,0,0,1,398.5,572.75Z" transform="translate(-88.09 -133.71)"/><path class="cls-6" d="M406.64,565.77a15.7,15.7,0,0,1,2.6-.12c6.05.22,10.52,3.77,12.68,5.8.13.51.32,1.26.5,2.2a10.78,10.78,0,0,1,.39,2.74c-.33,1.81-4.19,3.36-7.59,3-5.28-.56-10.43-5.82-9.85-10.53A6.7,6.7,0,0,1,406.64,565.77Z" transform="translate(-88.09 -133.71)"/></g><path class="cls-4" d="M421.56,571.79a96.7,96.7,0,0,1-10-4c-5.73-3.11-6.72-5.08-7.09-6-1.36-3.49.33-7.22,1.18-9,3.67-7.7,14.81-27.93,30.42-54.64a10.9,10.9,0,0,0,8.27-3.61,11,11,0,0,0,1.77-11.1l11.52-16.52a17.86,17.86,0,0,1,6.79-3.6c5.53-1.49,10.18.35,14.47,2.1,5,2.05,12.25,5,15.95,12.61.84,1.74,3.12,6.42,1.77,12a15.75,15.75,0,0,1-3,6l-51.15,66.66s-6.33,9.87-10.56,11.09S421.56,571.79,421.56,571.79Z" transform="translate(-88.09 -133.71)"/><g id="Capa_23" data-name="Capa 23"><path class="cls-4" d="M419.06,606.54v-1.2c.05-3.28-1.11-5.67-2.36-8.26a29.73,29.73,0,0,0-4-6.15L395.57,580.3c-6.95,1.68-14.36,3.79-22.13,6.42A261.84,261.84,0,0,0,343,599.26a11.26,11.26,0,0,0-3.92,5.25c-.06.18-.1,1.85-.15,2C343.91,606.59,414.85,606.69,419.06,606.54Z" transform="translate(-88.09 -133.71)"/><path class="cls-5" d="M412.89,588.83a18.74,18.74,0,0,1-12.18-7.21,12.67,12.67,0,0,1-2.38-4.84,4.09,4.09,0,0,1-3.27,3.69,15.09,15.09,0,0,0,1.27,3.57c3.16,6.05,9.95,8.25,14,8.45a9.1,9.1,0,0,0,3.49-.38A4.83,4.83,0,0,1,412.89,588.83Z" transform="translate(-88.09 -133.71)"/></g><g id="Capa_20" data-name="Capa 20"><path class="cls-4" d="M406.64,565.77a7.22,7.22,0,0,0-.11,3.6c.64,2.65,2.79,4.08,5,5.57,2,1.34,3.43,2.46,5.92,2.47a10.17,10.17,0,0,0,5.21-1.51,6.25,6.25,0,0,1-.11,3.66,5.44,5.44,0,0,1-.78,1.46c-1.89,2.4-7.38,1.05-8.42.79-2.35-.58-6-1.49-8.36-5-.68-1-2.59-3.85-1.6-7.09A7.33,7.33,0,0,1,406.64,565.77Z" transform="translate(-88.09 -133.71)"/><path class="cls-4" d="M398.5,572.75a10.4,10.4,0,0,0,.11,2.87,12.42,12.42,0,0,0,2.44,5.12,18.87,18.87,0,0,0,7.2,5.74,19.11,19.11,0,0,0,9.52,1.63,6.93,6.93,0,0,1-2.11,2.37,7.62,7.62,0,0,1-5,1.12c-4.06-.2-10.85-2.39-14-8.44-.77-1.48-2.2-5.2-1.1-7.71C396.4,573.53,397.76,573.25,398.5,572.75Z" transform="translate(-88.09 -133.71)"/></g><g id="Capa_22" data-name="Capa 22"><path class="cls-7" d="M446.08,483.45a11.68,11.68,0,0,0-8.64,5.1,12,12,0,0,0-1.4,9.61,11,11,0,0,0,8.69-4.13C448.31,489.3,446.18,483.69,446.08,483.45Z" transform="translate(-88.09 -133.71)"/></g><g id="Capa_24" data-name="Capa 24"><path class="cls-6" d="M338.88,606.54a13.43,13.43,0,0,0,.52,5.25,13.24,13.24,0,0,0,2.14,4.13l68.66.3a15.87,15.87,0,0,0,5.1-2.4,8.52,8.52,0,0,0,3.1-3.23,7.42,7.42,0,0,0,.66-4.05Z" transform="translate(-88.09 -133.71)"/></g></g><g id="Capa_12_copia_2" data-name="Capa 12 copia 2"><path class="cls-8" d="M540.58,388.17c17.27-11.82,47.35-41.55,49.24-44.57,2.27-3.59,15.11-16.62,14.78-32.83,5.28.26,13.88,12.22,19.16,12.48-.64,13.58-19.25,31.74-20,33.32-1.11,2.43-37.89,29.67-54,40.15a40,40,0,0,1-38.1,12.86,4.93,4.93,0,0,1-1.15-3.32c.18-1.6,1.53-2.53,3.47-3.83l6.9-4.59c4.66-2.47,7.3-3.55,11.68-5.64C534.41,391.32,537.2,390,540.58,388.17Z" transform="translate(-88.09 -133.71)"/></g><g id="Capa_10" data-name="Capa 10"><path class="cls-9" d="M618.91,195.09a89.53,89.53,0,0,1,9.35,6c4.77,3.5,7.82,5.74,10.26,9.12,3.67,5.08,2.5,8.5,4.71,16.92a63.18,63.18,0,0,0,7.15,16.68l17.88,6.47a69.27,69.27,0,0,1,6,8.51c3.15,5.31,4.76,9.67,6.81,15.49,2.31,6.55,4.91,14.2,7.66,22.81a81.12,81.12,0,0,0,1-26.38c-1-7.52-1.83-14.37-6.3-21.45-5.29-8.4-8.87-6.4-16-15.83-5.24-6.94-8-14.19-10.89-22-3.11-8.25-2.65-9.63-5.45-14.81s-6.2-11.49-12.77-14.7c-10.83-5.28-23.06,1.5-24.84,2.52a18.12,18.12,0,0,0-10.39-1.09c-9.74,2.05-16.16,13.18-16.85,22.46-.61,8.31,3.83,8.76,3.58,19.58-.16,6.63-1.86,8-2.39,17.7a63.75,63.75,0,0,0,.34,13.28c1.49,10.13,4.82,10.85,6.47,19.4,2,10.57-2.29,13.31-.34,22.64,1.55,7.4,5.8,12.93,9.51,16.66l75.94-20.92-20.09-50.55" transform="translate(-88.09 -133.71)"/></g><g id="Capa_2" data-name="Capa 2"><g id="Capa_3" data-name="Capa 3"><path class="cls-8" d="M613,243.83c.66,1.25,1.76,3.28,3.21,5.74,3.69,6.28,5.42,8.16,8,13.34,2.71,5.37,3.06,7.7,2.91,9.79a13.63,13.63,0,0,1-1.47,5.12l1.75,13.42q6.42-20.46,12.85-40.91a8.69,8.69,0,0,1,1-2.34,9,9,0,0,1,.86-1.1q-2.51-4.32-5-8.65Z" transform="translate(-88.09 -133.71)"/></g><circle class="cls-10" cx="531.92" cy="88.3" r="25.95"/><circle class="cls-8" cx="531.92" cy="87.3" r="25.95"/><path class="cls-8" d="M626.33,587.72l-1.1,7.81c2.75-.39,5.76-.7,9-.87,3.56-.18,6.87-.15,9.88,0-.08-.93-.15-1.85-.22-2.78Z" transform="translate(-88.09 -133.71)"/><path class="cls-8" d="M727.65,582.74c-.24,2.67-.47,5.35-.71,8l19.4-3.85-2.49-8Z" transform="translate(-88.09 -133.71)"/></g><g id="Capa_4" data-name="Capa 4"><g id="Capa_8" data-name="Capa 8"><path class="cls-11" d="M747.06,577.53c-1.31-.59-15.53-95-18.8-109.27-2.71-11.8,3.09-63.79,5.18-81.41.33-2.78,1.42-5.42,1.65-8.2.74-9.2-2.85-31.41-26.47-43.43,0,0-.47-1.25-1.28-3.37-12,7-38,22.3-50.78,31.25l14.1,51.77,13.72,56.84,39.19,111.47C728.81,583.18,748.37,578.13,747.06,577.53Z" transform="translate(-88.09 -133.71)"/><path class="cls-11" d="M647.33,592c-.92-1.11,20.29-96.46,23.65-110.71,2.78-11.78,37.49-54.52,45.19-70.51,3.32-6.89,4-14.08,4.34-16.85,1-7.92,3.58-9.19-.67-36.31,0,0-12.59-12.75-12.38-15-16.48,10.89-26.92,21.11-42.35,23.49l-14.5,46.21-19.33,56.14-7.52,118.24C628.45,589,648.24,593.14,647.33,592Z" transform="translate(-88.09 -133.71)"/></g><path class="cls-12" d="M622.12,333.89a.59.59,0,0,0,.75-.33c1.32-3.23,2.67-6.44,4.19-9.69a124.27,124.27,0,0,0,6-15,.56.56,0,0,0,0-.44l-10.85-22.62a.59.59,0,0,0-1-.06c-2.71,4.34-14.4,23.18-22.7,38.2a.57.57,0,0,0,.29.82c3.62,1.49,7.14,3.35,10.69,4.63C613.62,330.9,617.88,332.38,622.12,333.89Z" transform="translate(-88.09 -133.71)"/><g id="Capa_5" data-name="Capa 5"><path class="cls-4" d="M647.82,343.08c.65,2.38,8.74,20,8.74,20,2.35-1.55,4.69-3.11,7-4.65,9.36-6.13,18.82-12.06,28.5-17.66q7.64-4.43,15.36-8.67c-4.76-12.55-17.6-43.63-23-57.39C671.66,242,657.64,242,657.64,242s-14.4,0-17,7.73-13.09,41.6-13.09,41.6L625.78,278s-5.45,6.87-5.45,12.22-3.27,24.37,10.47,36.26S647.16,340.7,647.82,343.08Z" transform="translate(-88.09 -133.71)"/></g><g id="Capa_6_copia" data-name="Capa 6 copia"><path class="cls-5" d="M679.86,279c-1.32-4.41-8.16-21.8-13.44-28.69-1.64-2.15-6.47-6.56-10.3-5.26l-5.77,2.64a5.78,5.78,0,0,0-2.61,4.91c1.76,12.18,8.73,61.19,7.56,67.43-1.08,5.75,18.69,2.67,35.73-2.92C689.64,313.28,682.69,288.42,679.86,279Z" transform="translate(-88.09 -133.71)"/></g><g id="Capa_12_copia" data-name="Capa 12 copia"><path class="cls-8" d="M658.32,410.12C664.15,390,668.49,348,668,344.43c-.53-4.22,1.11-22.44-9.44-34.75,4.24-3.15,18.48.62,22.72-2.53,8.13,10.9,5.3,36.74,5.74,38.43.68,2.57-10.42,47-16.22,65.32A40,40,0,0,1,649.58,445a4.88,4.88,0,0,1-3-1.83c-.89-1.36-.44-2.93.24-5.17,1.58-5.22,2.37-7.82,2.42-7.93,2-4.86,3.38-7.37,5.43-11.77C655.56,416.47,656.84,413.65,658.32,410.12Z" transform="translate(-88.09 -133.71)"/></g><g id="Capa_6" data-name="Capa 6"><path class="cls-4" d="M678,278c-1.3-4.41-8.08-21.82-13.34-28.73-1.63-2.16-6.45-6.59-10.28-5.29l-5.78,2.62a5.79,5.79,0,0,0-2.63,4.89c1.72,12.19,8.52,61.23,7.33,67.46-1.09,5.75,18.69,2.73,35.75-2.8C687.68,312.3,680.82,287.42,678,278Z" transform="translate(-88.09 -133.71)"/></g></g><g id="Capa_11" data-name="Capa 11"><path class="cls-9" d="M615.26,195.51c1,4,7.35,3.16,15,8.66a30.48,30.48,0,0,1,8.17,8.68C641,217,641,219.48,642.31,223c3.42,9.21,12.58,17.09,15.22,15.72,3.73-1.94.48-25.42-14.81-39-8-7.1-21.34-13.32-25.87-9.37A5.45,5.45,0,0,0,615.26,195.51Z" transform="translate(-88.09 -133.71)"/><path class="cls-9" d="M619.06,192.6a107.32,107.32,0,0,1-9.36,9.87c-4.23,3.94-5.67,4.66-7.32,6.81-4.33,5.64-3.54,12.61-3.23,18.72.89,17.63-2,32.65-2.72,32.68s-2.09-11.78-5.28-59.23l24.51-11.75" transform="translate(-88.09 -133.71)"/></g><g id="Capa_16" data-name="Capa 16"><path class="cls-9" d="M647.15,618.17l-60.09.17A52.28,52.28,0,0,1,606,601.15c8.62-4.6,16.71-5.38,23.83-6.13a89.84,89.84,0,0,1,17.19-.17Q647.07,606.51,647.15,618.17Z" transform="translate(-88.09 -133.71)"/><path class="cls-9" d="M735.49,618.22l-41.45.12c2.59-3.9,7.61-13.6,18.9-17.19,3.81-1.21,11.58-9.89,11.58-9.89,3.51-.65,20.52-4.61,24.31-4.56l4.95,13.11Z" transform="translate(-88.09 -133.71)"/></g><g id="Capa_25" data-name="Capa 25"><ellipse class="cls-6" cx="242.85" cy="437.44" rx="7.87" ry="7.62"/><circle class="cls-6" cx="262.66" cy="436.65" r="7.68"/><circle class="cls-6" cx="254.65" cy="449.26" r="8.01"/><circle class="cls-6" cx="236.42" cy="465.06" r="3.36"/><circle class="cls-6" cx="235.41" cy="474.26" r="3.41"/><circle class="cls-6" cx="241.07" cy="469.54" r="3.56"/><ellipse class="cls-6" cx="252.27" cy="436.82" rx="6.62" ry="7"/><ellipse class="cls-6" cx="248.1" cy="447.95" rx="8.15" ry="7.66"/><circle class="cls-6" cx="247.2" cy="456.91" r="3.59"/><circle class="cls-6" cx="243.65" cy="473.98" r="1.63"/><ellipse class="cls-6" cx="236.78" cy="470.65" rx="3.72" ry="3.34"/><ellipse class="cls-6" cx="238.94" cy="473.33" rx="3.53" ry="3.3"/><circle class="cls-6" cx="338.71" cy="469.79" r="4.24"/><ellipse class="cls-6" cx="347.74" cy="475.29" rx="4.3" ry="4.13"/><circle class="cls-6" cx="338.71" cy="478.08" r="4.4"/><circle class="cls-6" cx="344.52" cy="470.68" r="2.59"/><circle class="cls-6" cx="342.13" cy="474.58" r="3.41"/><ellipse class="cls-6" cx="336.21" cy="475.79" rx="3.4" ry="3.2"/><circle class="cls-6" cx="332.66" cy="478.08" r="2.28"/></g></svg>