<svg id="Capa_1" data-name="Capa 1" xmlns="http://www.w3.org/2000/svg" viewBox="0 0 1050.89 1035.42"><defs><style>.cls-1{fill:none;stroke:#9c796c;stroke-width:11px;}.cls-1,.cls-12,.cls-13{stroke-miterlimit:10;}.cls-2{fill:#efd8cf;}.cls-3{opacity:0.1;}.cls-4{fill:#eaeaea;}.cls-5{fill:#403d56;}.cls-6{fill:#31b3a0;}.cls-7{fill:#776657;}.cls-8{fill:#32b3a1;}.cls-9{fill:#010101;isolation:isolate;opacity:0.1;}.cls-10{fill:#cccccb;}.cls-11{fill:#efefe4;}.cls-12{fill:#dae38f;stroke:#dae38f;stroke-width:0.75px;}.cls-13{fill:#66bb8d;stroke:#66bb8d;}.cls-14{fill:#dedede;}.cls-15{fill:#2f2f41;}.cls-16{fill:#6fbb79;}.cls-17{fill:#8ecec9;}.cls-18{fill:#c6d542;}.cls-19{fill:#cf5f5f;}.cls-20{fill:#ceb793;}.cls-21{fill:#dae38e;}.cls-22{fill:#c6d543;}.cls-23{fill:#e8e6e6;}</style></defs><polyline class="cls-1" points="725.25 1023.34 992.16 1023.34 992.16 5.5 725.25 5.5"/><path d="M1062,1047.62H27.64c-4.57,0-8.28-1.18-8.28-2.62s3.71-2.62,8.28-2.62H1062c4.57,0,8.28,1.17,8.28,2.62S1066.55,1047.62,1062,1047.62Z" transform="translate(-19.36 -12.2)"/><path class="cls-2" d="M641.06,227.39c-11.08,7.24-14.39,22.41-7.4,33.89a24.43,24.43,0,0,0,2.54,3.44l-23,50.84,26.43,22,31.5-72.26a25.32,25.32,0,0,0-.69-34.92,23.23,23.23,0,0,0-29.38-3Z" transform="translate(-19.36 -12.2)"/><path class="cls-2" d="M508.93,248h0c15.11-9.4,34.69-4.85,44.49,10.33l42.79,80.24,29.36-50.38,31.25,9.92-30,69.52c-7.63,23.33-15.52,29.43-38,21.54a42.92,42.92,0,0,1-10.58-5.49h0a43.71,43.71,0,0,1-7.05-6.28l-69.33-76.7a35.07,35.07,0,0,1,1.54-48.35A32.88,32.88,0,0,1,508.93,248Z" transform="translate(-19.36 -12.2)"/><path class="cls-3" d="M615.43,358.93c-12.06-5.28-26,.56-31.09,13.06a25.54,25.54,0,0,0-1.28,4.12l-53.44,9.48-4.36,35,77.29-14.48c13,2.14,25.23-7.05,27.29-20.52a24.85,24.85,0,0,0-14.41-26.68Z" transform="translate(-19.36 -12.2)"/><polygon class="cls-2" points="525.23 1003.62 554.16 1003.61 567.92 888.1 525.22 888.1 525.23 1003.62"/><path class="cls-4" d="M629.31,1043.62H538.4v-36.37h55.78c19.4,0,35.13,16.28,35.13,36.36Z" transform="translate(-19.36 -12.2)"/><polygon class="cls-2" points="436.33 1003.62 465.26 1003.61 479.01 888.1 436.32 888.1 436.33 1003.62"/><path class="cls-4" d="M540.41,1043.62H449.5v-36.37h55.79c19.4,0,35.13,16.28,35.13,36.36Z" transform="translate(-19.36 -12.2)"/><ellipse class="cls-2" cx="521.05" cy="132.22" rx="62.15" ry="64.34"/><path class="cls-5" d="M494.5,448.14S437,470.38,452,564.56c13.5,84.5,2.77,365,.43,421.69a10.35,10.35,0,0,0,9.27,10.88l33.59,2.9a10.22,10.22,0,0,0,10.9-9.31l17.35-165a2.55,2.55,0,0,1,2.79-2.32,2.58,2.58,0,0,1,2.25,2.38L541.5,984.55a10.25,10.25,0,0,0,10.41,9.59l28.21-.92a10.34,10.34,0,0,0,9.8-10.81h0L573.3,459.14Z" transform="translate(-19.36 -12.2)"/><path class="cls-6" d="M572.39,316.56c-1-33.61-14.47-65.66-42.28-83-16.06-9.8-37.6-12.34-51.58,2.13a100.78,100.78,0,0,0-19.83,30.81,136.64,136.64,0,0,0-2.36,98.21l33.28,95.18,77,8.64a10.21,10.21,0,0,0,11.16-9.29,11.32,11.32,0,0,0,.05-1.54Z" transform="translate(-19.36 -12.2)"/><path class="cls-7" d="M552.88,140.18c20.78,8.83,47.33-1.48,57.38-22.28s2.09-49-17.2-60.9c-14.12-8.73-21.14-11-38.89-12.93a189.7,189.7,0,0,0-44.68,0c-12.5,1.45-20.32,5-33.32,12.48C457.26,67.49,447,90.4,445.74,112.79s5.36,44.45,13.38,65.28c13,33.69,54.73,51.84,87,37.81C531.37,193.07,534.29,159.69,552.88,140.18Z" transform="translate(-19.36 -12.2)"/><path class="cls-2" d="M616.93,359.7c-12.07-5.28-26,.57-31.1,13.06a25.54,25.54,0,0,0-1.28,4.12l-53.44,9.48-4.36,35L604,406.91c13,2.13,25.23-7.05,27.3-20.53a24.87,24.87,0,0,0-14.41-26.68Z" transform="translate(-19.36 -12.2)"/><path class="cls-3" d="M465.83,316.36l63.29,17.85q3.89-19.8,7.76-39.61A42.75,42.75,0,0,0,535,273.68a33.61,33.61,0,0,0-18.35-19.8c-12.14-5-22.63.58-25.41,2.23-11.16,6.6-15.64,18.9-19.53,29.57A100.53,100.53,0,0,0,465.83,316.36Z" transform="translate(-19.36 -12.2)"/><path class="cls-2" d="M525.13,259.17h0c16.08,7.48,23.66,26.72,17.21,43.71l-34.12,80.67,52.61-2.46,8.66,32.46-68.38,12.54c-23.78,2.23-36.29-12.63-37.56-23.12-1.1-4,1.88-42.06,2.53-45.21l13.2-74.55c3.82-18.47,21.38-30.24,39.23-26.29A32.72,32.72,0,0,1,525.13,259.17Z" transform="translate(-19.36 -12.2)"/><path class="cls-6" d="M468.12,314l68.28,16.5,8.37-36.6a34,34,0,0,0-2-19.34c-5.44-12.83-17.16-17.36-19.8-18.3-13.09-4.64-24.41.54-27.41,2.06-12,6.11-16.87,17.47-21.07,27.33A80.79,80.79,0,0,0,468.12,314Z" transform="translate(-19.36 -12.2)"/><g id="Capa_17" data-name="Capa 17"><g id="Capa_18" data-name="Capa 18"><path class="cls-8" d="M285,668.12a18.31,18.31,0,0,1,4.17-8.84c7.66-8.53,21.74-4.64,26.31-3.29,5.59,1.67,13.07,3.56,16.79,10.78,2.3,4.15,3.47,11.16,1,14.54C330.57,684.27,322.28,687.75,285,668.12Z" transform="translate(-19.36 -12.2)"/></g><path class="cls-9" d="M325.85,792c-7.34,9.36-22.11-3.17-14.78-12.53a178.17,178.17,0,0,0,24-40.17,30.59,30.59,0,0,0,2.42-15.63,92.11,92.11,0,0,0-1.27-13,2.9,2.9,0,0,0-1-.33,9.45,9.45,0,0,1-2.89-2.24,9.08,9.08,0,0,1-2.78-7.1,9.32,9.32,0,0,1,.61-3.6l.34-.86a9.38,9.38,0,0,1,2.79-3.74h0a9.39,9.39,0,0,1,.48-12c-.28-.13-.44-.55-.72-.68-13.41-13.06-29.88-13.85-41.25-14.23a49,49,0,0,0-6.54-.09,8.2,8.2,0,0,1-3.68,7.21c-9.73,6.68-18.41,14.89-29.67,18.8a3.77,3.77,0,0,1-1.64.4c-2.47,12-4.94,24.07-7.52,36.4a26.51,26.51,0,0,1,6.66,19.3,8.22,8.22,0,0,1,3.73.95,10.66,10.66,0,0,1,5.07,5.49,17,17,0,0,1,1.59,6.36,11.63,11.63,0,0,1-1,6.15,12.72,12.72,0,0,1-3.72,4.82,8.75,8.75,0,0,1-4.48,1.75c-.66,0-1.61-.1-2.27-.08a9.21,9.21,0,0,1-3.24-1.38c-.39.15-.89.59-1.28.74l-.19.07a9.83,9.83,0,0,1-2.7.57,1.84,1.84,0,0,0-.89.59,6.42,6.42,0,0,1-3.63.46,9.34,9.34,0,0,1-1.61-.1c-8.13,64.08-13,111.94-13.65,130.26-.28,4.45-.37,13.39,5,19.71,1.52,1.57,5.1,5,18.73,7.13,6.67,1,22.73.76,22.73.76s14.69,2,21.69-3.65c7.19-5.7,11.56-31.23,11.56-31.23s13.4-52.9,27-107.07C327,790.38,326.46,791.31,325.85,792Z" transform="translate(-19.36 -12.2)"/><g id="Capa_19" data-name="Capa 19"><path class="cls-10" d="M302.11,654c15.06-71.6,30.4-143.06,45.46-214.66,1.38-6.79,7.93-11.28,14.35-9.21.47.06.83.4,1.3.46l1.11.53a13.2,13.2,0,0,1,6.22,14.18L327.1,661.07c-2.07-1.84-5-3.59-11.83-5C310.31,654.87,304.53,653.27,302.11,654Z" transform="translate(-19.36 -12.2)"/></g><g id="Capa_21" data-name="Capa 21"><path class="cls-10" d="M222.24,953.31c1.28-.74,2.68-1.77,4.35-2.66a36.89,36.89,0,0,1,4.31-2.16c11.93,3.52,23.74,7.34,35.67,10.87a14.93,14.93,0,0,1,3.63,4.12,15.47,15.47,0,0,1,2.2,7.32,25.78,25.78,0,0,1-7.95,5.51c-13.68,6.31-34.61,1-40.51-12.35A19.76,19.76,0,0,1,222.24,953.31Z" transform="translate(-19.36 -12.2)"/><path class="cls-10" d="M232.37,932.75a43.34,43.34,0,0,1,5-2.19c11.84-4.14,23.54,0,29.46,2.46.6,1,1.65,2.49,2.77,4.22,1.89,3.11,2.86,4.42,3,5.33.89,4-5.4,10.29-12.34,12-10.81,2.78-25-4.21-27.86-14.4A17.62,17.62,0,0,1,232.37,932.75Z" transform="translate(-19.36 -12.2)"/></g><path class="cls-8" d="M266.47,933.88s-16,.46-22.73-.76C230.11,931,226.53,927.57,225,926c-5.58-6.24-5.3-15.26-5-19.71.91-18.89,6-69.5,14.56-137.11a21.94,21.94,0,0,0,13.21-13.82c2.61-8.24.26-17.68-5.57-24.55,2.91-14.37,6-28.82,8.9-43.19a35.08,35.08,0,0,1,10.3-12.68c9.48-7.32,20.1-7.13,29.94-6.64,11.45.59,27.84,1.17,41.25,14.23,2.95,3,11.26,11,13.31,23.69A34.67,34.67,0,0,1,345,721C328.64,785.4,299.8,899.21,299.8,899.21s-4.17,25.46-11.56,31.23C281,935.93,266.47,933.88,266.47,933.88Z" transform="translate(-19.36 -12.2)"/><g id="Capa_23" data-name="Capa 23"><path class="cls-8" d="M266.51,1020.5v-2.69c0-7.4-2.3-12.78-5-18.61a67.76,67.76,0,0,0-8.36-13.9c-11.91-7.85-23.82-15.92-35.73-23.77-14.63,3.82-30.1,8.52-46.19,14.35a553,553,0,0,0-63.75,28,24.27,24.27,0,0,0-8.15,11.88c-.21.45-.21,4-.42,4.48C109.34,1020.72,257.73,1021,266.51,1020.5Z" transform="translate(-19.36 -12.2)"/><path class="cls-9" d="M253.55,980.82a36.85,36.85,0,0,1-10.45-3.37,38.36,38.36,0,0,1-15-12.78,30.88,30.88,0,0,1-5-10.76c-.42,3.81-2.72,7.4-6.9,8.3a34.27,34.27,0,0,0,2.72,8.07c6.69,13.45,20.69,18.38,29.26,18.83a18.49,18.49,0,0,0,7.31-.9A11.18,11.18,0,0,1,253.55,980.82Z" transform="translate(-19.36 -12.2)"/></g><g id="Capa_20" data-name="Capa 20"><path class="cls-8" d="M232.37,932.75a16.6,16.6,0,0,0,2.75,7.59c3.37,5.18,8.8,6.43,14.31,7.9,4.95,1.19,8.66,2.63,13.53.73a19.9,19.9,0,0,0,8.89-7.08,13.92,13.92,0,0,1,2.83,7.8,12.09,12.09,0,0,1-.33,3.74c-1.74,6.46-13.59,7.71-15.7,8.05-5.16.58-12.9,1.43-20.44-4.05-2.18-1.56-8.24-6.17-8.91-13.61A17,17,0,0,1,232.37,932.75Z" transform="translate(-19.36 -12.2)"/><path class="cls-8" d="M222.24,953.31a23.65,23.65,0,0,0,2.57,6,29.65,29.65,0,0,0,8.84,8.83,38.4,38.4,0,0,0,18.67,6.43,36.72,36.72,0,0,0,19.8-3.88,15.65,15.65,0,0,1-2.13,6.61,14.45,14.45,0,0,1-8.83,6.09c-8.14,2.7-23.18,3.27-34.12-6.9-2.78-2.52-8.53-9.19-8.43-15.24C218.81,956.58,221.29,954.89,222.24,953.31Z" transform="translate(-19.36 -12.2)"/></g><g id="Capa_22" data-name="Capa 22"><path class="cls-11" d="M241.92,730.67a23.58,23.58,0,0,0-12.58,17.18A29,29,0,0,0,234.47,769a22.22,22.22,0,0,0,13.58-15.17C251,741.32,242.36,731.22,241.92,730.67Z" transform="translate(-19.36 -12.2)"/></g><g id="Capa_24" data-name="Capa 24"><path class="cls-10" d="M98.89,1020.5a32.45,32.45,0,0,0,1,11.88,31.55,31.55,0,0,0,4.39,9.19l143.58.68a31,31,0,0,0,10.66-5.38c2.72-2,5-3.82,6.48-7.18a17.84,17.84,0,0,0,1.46-9.19Z" transform="translate(-19.36 -12.2)"/></g></g><g id="Capa_25" data-name="Capa 25"><ellipse class="cls-10" cx="62.81" cy="928.93" rx="16.51" ry="17.04"/><ellipse class="cls-10" cx="104.19" cy="927.36" rx="16.09" ry="17.26"/><ellipse class="cls-10" cx="87.47" cy="955.61" rx="16.72" ry="17.94"/><ellipse class="cls-10" cx="49.44" cy="991.03" rx="7.11" ry="7.62"/><ellipse class="cls-10" cx="47.35" cy="1011.66" rx="7.11" ry="7.62"/><ellipse class="cls-10" cx="59.26" cy="1000.9" rx="7.52" ry="8.07"/><ellipse class="cls-10" cx="82.67" cy="927.58" rx="13.79" ry="15.69"/><ellipse class="cls-10" cx="73.89" cy="952.69" rx="16.93" ry="17.26"/><ellipse class="cls-10" cx="72.01" cy="972.65" rx="7.52" ry="8.07"/><ellipse class="cls-10" cx="64.48" cy="1010.99" rx="3.34" ry="3.59"/><ellipse class="cls-10" cx="50.27" cy="1003.59" rx="7.73" ry="7.4"/><ellipse class="cls-10" cx="54.66" cy="1009.42" rx="7.31" ry="7.4"/><ellipse class="cls-10" cx="263.24" cy="1001.57" rx="8.78" ry="9.42"/><ellipse class="cls-10" cx="282.05" cy="1013.9" rx="8.99" ry="9.19"/><ellipse class="cls-10" cx="263.24" cy="1020.18" rx="9.2" ry="9.86"/><ellipse class="cls-10" cx="275.36" cy="1003.59" rx="5.43" ry="5.83"/><ellipse class="cls-10" cx="270.35" cy="1012.33" rx="7.11" ry="7.62"/><ellipse class="cls-10" cx="258.02" cy="1015.02" rx="7.11" ry="7.17"/><ellipse class="cls-10" cx="250.49" cy="1020.18" rx="4.81" ry="5.16"/></g><line class="cls-1" x1="725.24" y1="500.98" x2="992.16" y2="500.98"/><line class="cls-1" x1="725.24" y1="242.12" x2="992.16" y2="242.12"/><line class="cls-1" x1="725.24" y1="764.33" x2="992.16" y2="764.33"/><path class="cls-12" d="M897.17,83.62a45.9,45.9,0,0,1,1.05,11.55,35.59,35.59,0,0,1-2.29,12.11c-1.67,4.28-2.38,5.84-7.11,12.18-4.33,5.83-4.76,7-6.22,10.32-1.87,4.24-1.53,9.43-1.55,12.16l-6.44,0a33.78,33.78,0,0,1,3.81-14.18c3.86-7.23,6-7.13,10.78-13.92,0,0,8.9-16,8.25-27.07C897.37,85.41,897.14,83.63,897.17,83.62Z" transform="translate(-19.36 -12.2)"/><path class="cls-13" d="M859.38,141.91a85.66,85.66,0,0,0-1.14-10.39,114.58,114.58,0,0,0-4.19-16.12c-3.15-9.88-4.06-10.09-4.19-13.79-.07-2,.1-4.6,3.3-13.66,3.53-10,5.16-12,6.85-17.14a53.24,53.24,0,0,0,2.29-21,39.56,39.56,0,0,1,1.27,17c-.48,3-1.52,6.85-2,8.77-1.32,4.85-2,6.19-2.67,8.63a41.37,41.37,0,0,0-.25,19.47c.75,3.56.88,1.84,4.82,13.4,2.69,7.9,4,12.63,4.32,13.92,1.19,4.48,2,8.25,2.53,10.94Z" transform="translate(-19.36 -12.2)"/><path class="cls-14" d="M844.85,142c16.58-.18,34.81.17,51.4,0a55,55,0,0,0-5.08,22.16c0,2.47.06,9,3.56,20.11,6.44,20.49,14,23.38,14.72,33.51.47,6.83-2.19,16.84-17.26,29.9H850.56c-14.66-12.11-18.24-21.2-18.24-30.28,0-9.67,10-13.73,15.19-29.58,3.64-11.24,2.29-18.38,2.29-23C849.8,154.91,845.89,147.59,844.85,142Z" transform="translate(-19.36 -12.2)"/><rect class="cls-15" x="770.27" y="468.44" width="162.96" height="26.81"/><rect class="cls-16" x="802.26" y="442.69" width="120.83" height="25.75"/><rect class="cls-17" x="791.6" y="416.11" width="111.18" height="26.58"/><rect class="cls-15" x="800.23" y="392.69" width="112.7" height="23.42"/><rect class="cls-18" x="791.6" y="370.52" width="111.18" height="22.17"/><rect class="cls-17" x="812.96" y="346.78" width="108.09" height="23.73"/><ellipse class="cls-19" cx="852.07" cy="691.16" rx="28.24" ry="28.13"/><ellipse class="cls-3" cx="820.5" cy="701.67" rx="22.05" ry="21.41"/><ellipse class="cls-3" cx="882.93" cy="695.82" rx="24.12" ry="23.47"/><ellipse class="cls-19" cx="886.58" cy="695.27" rx="24.12" ry="24.02"/><ellipse class="cls-19" cx="816.62" cy="701.11" rx="22.05" ry="21.96"/><path class="cls-20" d="M803,718.85H939.26c.56,6.68,1.12,24.75-10.79,40.45a51.94,51.94,0,0,1-10.15,10.11H823.76a33.87,33.87,0,0,1-13.2-12.33C801.48,742.86,802.64,728.06,803,718.85Z" transform="translate(-19.36 -12.2)"/><path class="cls-21" d="M880.59,963.27s-12,1.15-15.94-.85c-28.26-14.14-86.39-55.33-56-81C847.62,848.49,880.59,963.27,880.59,963.27Z" transform="translate(-19.36 -12.2)"/><path class="cls-22" d="M878.66,974.35s-50.95-155.69,24.08-148.24S878.66,974.35,878.66,974.35Z" transform="translate(-19.36 -12.2)"/><path class="cls-5" d="M841.51,960.54l2.14,26,0,.45a112.69,112.69,0,0,0,.66,12.18c2.91,26.56-1,30.75,29.69,30.75,32.25,0,26.79-4.19,29.69-30.75a112.69,112.69,0,0,0,.66-12.18l0-.36v-.09l2.14-26Z" transform="translate(-19.36 -12.2)"/><path class="cls-23" d="M904.41,986.58v.09l0,.36a112.69,112.69,0,0,1-.66,12.18H844.34a112.69,112.69,0,0,1-.66-12.18l0-.45Z" transform="translate(-19.36 -12.2)"/></svg>