<svg xmlns="http://www.w3.org/2000/svg" viewBox="0 0 475.43 391.13"><defs><style>.cls-1{fill:#c8a092;}.cls-11,.cls-14,.cls-2,.cls-6,.cls-7{fill:none;stroke-miterlimit:10;}.cls-2{stroke:#010606;}.cls-3{fill:#069999;}.cls-4{fill:#dadada;}.cls-5{fill:#e6e6e6;}.cls-11,.cls-6,.cls-7{stroke:#5e5a6a;}.cls-7{stroke-width:0.7px;}.cls-8{fill:#010606;}.cls-9{fill:#efd8cf;}.cls-10{fill:#b9b9b9;}.cls-11{stroke-width:2px;}.cls-12{fill:#2f2e41;}.cls-13{fill:#00838d;}.cls-14{stroke:#00838d;stroke-width:0.25px;}</style></defs><g id="Capa_29" data-name="Capa 29"><path class="cls-1" d="M48.55,452a51.15,51.15,0,0,1-2-11.53c-.28-5.31.37-8.61.79-13.34a99.17,99.17,0,0,0-.11-18.34,120.94,120.94,0,0,1,4.68,18.81c1.9,11.62.86,16.17-.5,19.39A23,23,0,0,1,48.55,452Z" transform="translate(-16.79 -62.23)"/><path class="cls-1" d="M32.57,410.41a51,51,0,0,0-.72,10.9,52.63,52.63,0,0,0,2.26,13.08A50.53,50.53,0,0,0,40,447.18,45.8,45.8,0,0,0,43.69,452a82.46,82.46,0,0,0-3.5-24A83,83,0,0,0,32.57,410.41Z" transform="translate(-16.79 -62.23)"/><path class="cls-1" d="M37.75,451.91a34.85,34.85,0,0,0-7.84-11.12A35.81,35.81,0,0,0,26,437.88c-2.21-1.46-8.24-2.38-9.21-2A21.06,21.06,0,0,1,21.3,439c2.49,2.28,2.43,3.35,5,6a27.21,27.21,0,0,0,6.13,4.59A29.08,29.08,0,0,0,37.75,451.91Z" transform="translate(-16.79 -62.23)"/><g id="Capa_28" data-name="Capa 28"><line class="cls-2" x1="3.9" y1="389.77" x2="462.52" y2="389.77"/></g><path class="cls-3" d="M451.85,452c-.33-2-.75-4.65-1.15-7.79-.58-4.61-.87-8.13-1.06-10.49-.28-3.5-.49-6.1-.6-9.53a81.28,81.28,0,0,1,.26-12.68,57.39,57.39,0,0,1,2.81-12.25c.24,1.38.57,3.28.93,5.53.56,3.49,1,7,1.79,13,1,8.53,1.56,12.79,1.53,14.72a46.28,46.28,0,0,1-1.7,12.34A42.07,42.07,0,0,1,451.85,452Z" transform="translate(-16.79 -62.23)"/><path class="cls-3" d="M456,451.87A152.55,152.55,0,0,1,460.19,437c2.5-7.4,3.9-9.57,4.85-10.89a33,33,0,0,1,8-7.66,35.84,35.84,0,0,1,5.36-3.06,36.52,36.52,0,0,0-6.72,7.74c-2.25,3.52-2.17,4.79-5.19,10.13-2.08,3.67-2.66,4-4.94,7.83A97.93,97.93,0,0,0,456,451.87Z" transform="translate(-16.79 -62.23)"/></g><g id="Capa_30" data-name="Capa 30"><path class="cls-4" d="M139.57,162.31h96.48a33.06,33.06,0,0,0-13.43-10.73c-5.14-2.17-9.7-2.42-15.79-2.75-10-.54-10.32,1.27-16.49.18-7.53-1.34-8-4.19-17.19-6.65-4.68-1.25-9.78-2.61-14.71-1.59C146.06,143.33,140.43,159.7,139.57,162.31Z" transform="translate(-16.79 -62.23)"/><path class="cls-5" d="M139.57,162.31h96.48a33.06,33.06,0,0,0-13.43-10.73c-5.14-2.17-9.7-2.42-15.79-2.75-10-.54-10.32,1.27-16.49.18-7.53-1.34-8-4.19-17.19-6.65-4.68-1.25-9.78-2.61-14.71-1.59C146.06,143.33,140.43,159.7,139.57,162.31Z" transform="translate(-16.79 -62.23)"/><path class="cls-5" d="M34.07,95.63h86.12a29.54,29.54,0,0,0-12-9.54c-4.58-1.93-8.65-2.15-14.09-2.44-9-.49-9.22,1.12-14.73.15-6.71-1.18-7.13-3.72-15.34-5.91-4.18-1.11-8.73-2.32-13.13-1.41C39.86,78.75,34.84,93.31,34.07,95.63Z" transform="translate(-16.79 -62.23)"/><path class="cls-5" d="M224.87,81.61h77.19a27,27,0,0,0-10.75-9.49c-4.1-1.92-7.75-2.14-12.62-2.43-8-.48-8.27,1.12-13.2.15-6-1.18-6.39-3.7-13.76-5.88-3.74-1.11-7.82-2.31-11.76-1.41C230.06,64.82,225.56,79.3,224.87,81.61Z" transform="translate(-16.79 -62.23)"/><path class="cls-5" d="M403.49,150.94h88.73a30.68,30.68,0,0,0-12.36-10.32c-4.72-2.09-8.91-2.32-14.51-2.64-9.23-.52-9.5,1.22-15.18.16-6.92-1.28-7.34-4-15.81-6.39-4.3-1.2-9-2.52-13.53-1.53C409.45,132.68,404.28,148.43,403.49,150.94Z" transform="translate(-16.79 -62.23)"/></g><g id="Capa_31" data-name="Capa 31"><path class="cls-6" d="M436.35,201.62c5.73,50.51,3.77,114.76,1.11,140.19-6,57.45-1.47,99.55-2.46,110.36" transform="translate(-16.79 -62.23)"/></g><g id="Capa_32" data-name="Capa 32"><path class="cls-5" d="M441.79,366.8a14.69,14.69,0,0,1,2.72-10c2.49-3.23,5.85-4.31,9.1-5.36a27.8,27.8,0,0,1,9.74-1.3,22.62,22.62,0,0,1-1.43,5.28c-.93,2.31-3,7.35-8.21,10.12A17,17,0,0,1,441.79,366.8Z" transform="translate(-16.79 -62.23)"/><path class="cls-5" d="M442,307.45a14.62,14.62,0,0,1,4-9.56c2.88-2.89,6.35-3.54,9.7-4.17a27.65,27.65,0,0,1,9.83-.06,23,23,0,0,1-2.09,5.06c-1.22,2.17-3.88,6.91-9.42,9A17,17,0,0,1,442,307.45Z" transform="translate(-16.79 -62.23)"/><path class="cls-5" d="M445.06,250.38a14.7,14.7,0,0,1,1.59-10.22c2.12-3.49,5.34-4.94,8.45-6.34a27.62,27.62,0,0,1,9.53-2.38,22.47,22.47,0,0,1-.83,5.41c-.67,2.39-2.14,7.63-7,11A17,17,0,0,1,445.06,250.38Z" transform="translate(-16.79 -62.23)"/><path class="cls-5" d="M441,205.27a14.68,14.68,0,0,1-.17-10.34c1.49-3.8,4.41-5.78,7.24-7.69a27.72,27.72,0,0,1,9-4,22.43,22.43,0,0,1,.11,5.47c-.25,2.48-.81,7.89-5.06,12A17,17,0,0,1,441,205.27Z" transform="translate(-16.79 -62.23)"/><path class="cls-5" d="M433.48,332.41a14.67,14.67,0,0,0-.35-10.35c-1.68-3.71-4.7-5.54-7.61-7.31a27.83,27.83,0,0,0-9.18-3.52,22.35,22.35,0,0,0,.17,5.47c.38,2.47,1.2,7.84,5.66,11.75A17,17,0,0,0,433.48,332.41Z" transform="translate(-16.79 -62.23)"/><path class="cls-5" d="M432.74,274.55a14.63,14.63,0,0,0-2.64-10c-2.46-3.25-5.82-4.36-9.05-5.44a27.71,27.71,0,0,0-9.73-1.38A22.64,22.64,0,0,0,412.7,263c.92,2.32,2.92,7.37,8.13,10.19A16.94,16.94,0,0,0,432.74,274.55Z" transform="translate(-16.79 -62.23)"/><path class="cls-5" d="M432.8,224.44a14.65,14.65,0,0,0-4.34-9.39c-3-2.77-6.49-3.28-9.87-3.78a27.63,27.63,0,0,0-9.82.34,23,23,0,0,0,2.29,5c1.31,2.12,4.15,6.75,9.78,8.62A17,17,0,0,0,432.8,224.44Z" transform="translate(-16.79 -62.23)"/></g><g id="Capa_33" data-name="Capa 33"><path class="cls-7" d="M457,355.51c-1.27.73-11,6.64-14,10-1.94,2.22-7.72,8.61-8.08,10" transform="translate(-16.79 -62.23)"/><path class="cls-7" d="M422.91,319.6c1,1.71,7,8.95,9.32,12.11,2.47,3.44,4.68,11.88,4.78,14.47" transform="translate(-16.79 -62.23)"/><path class="cls-7" d="M459.68,297.77c-.32.1-5,0-13.79,6.73-.23.18-6.48,6.33-6.43,6.73" transform="translate(-16.79 -62.23)"/><path class="cls-7" d="M419.16,262.92c1.45,1.74,10,7.65,13.29,12.15,2.57,3.56,7.31,14.83,7.49,17.29" transform="translate(-16.79 -62.23)"/><path class="cls-7" d="M459.68,237.38c-.93,1.15-9.36,8.25-11.08,10.56-.86,1.16-5.17,6-6.06,9.77-.39,1.69-2.48,8.44-2.48,12" transform="translate(-16.79 -62.23)"/><path class="cls-7" d="M419.17,216.66a117,117,0,0,1,17.36,11c3.5,2.76,2.61,7.5,2.56,9" transform="translate(-16.79 -62.23)"/><path class="cls-7" d="M450.32,192.79a62.45,62.45,0,0,0-7.06,10.58,54.22,54.22,0,0,0-5.51,12.56" transform="translate(-16.79 -62.23)"/></g><g id="Capa_9" data-name="Capa 9"><path class="cls-8" d="M323.55,132.87a12.37,12.37,0,0,0-2.73,6.55,12.91,12.91,0,0,0,.43,4.43,16.71,16.71,0,0,0,2,4.17c2.06,4.17-4.62,8.49-3.83,11.74,1.11,4.63,13.51,8.73,17.53,4.77,5.06-5-4.1-22.06-9.3-30.88" transform="translate(-16.79 -62.23)"/></g><g id="Capa_7" data-name="Capa 7"><path class="cls-1" d="M332.72,153.59c-8-1-15.35,7.26-17,9.67a45.9,45.9,0,0,0-2.36,4.12c-2.45,4.55-4.81,8-5.65,9.66-1.29,2.51-3.2,5.65-5.65,10.14,4.14,2.31,8.8,5.08,12.94,7.39" transform="translate(-16.79 -62.23)"/><path class="cls-1" d="M374.45,165c2.22,5,5.83,10.05,8.34,18.52.32,1.06,2.68,6.57,3.53,11.19.09.51,1.11,4.42,1.11,4.42l-26,3.92" transform="translate(-16.79 -62.23)"/><polygon class="cls-1" points="344.82 145.38 346.21 138.5 358.21 105.53 330.92 96.6 298.3 109.19 299.57 137.28 347.85 174.38 352.98 176.91 344.82 145.38"/><polygon class="cls-1" points="319.85 191.67 349.9 173.64 347.44 168.57 318.58 189.74 319.85 191.67"/></g><g id="Capa_5" data-name="Capa 5"><rect class="cls-9" x="305.12" y="50.17" width="27.49" height="20.02"/><ellipse class="cls-9" cx="318.86" cy="50.68" rx="13.77" ry="12.61"/><ellipse class="cls-9" cx="318.86" cy="69.35" rx="13.74" ry="13.25"/><path class="cls-9" d="M333.31,101.43a51.56,51.56,0,0,0,2,6.13c1.17,3,1.85,4.75,3.15,6.38a15,15,0,0,0,8.34,4.85,17.87,17.87,0,0,0,3.74.55" transform="translate(-16.79 -62.23)"/><rect class="cls-9" x="315.93" y="48.94" width="21.52" height="43.55"/><path class="cls-9" d="M334.4,152.62c-2.12,1.27-2.94,2.75-4,3.66a11.87,11.87,0,0,0-3.79,4.48,4.76,4.76,0,0,0-.42,4.44,6.49,6.49,0,0,0,5.12,3.54c7.18,1.12,13.47-3.83,16.17-6a34.41,34.41,0,0,0,8.42-9.74" transform="translate(-16.79 -62.23)"/><polyline class="cls-9" points="285.87 125.28 281.96 132.63 221.19 165.01 236.75 168.57 291.86 149.2 294.95 145.97 298.3 141.58 303.05 130.89"/><polyline class="cls-9" points="347.62 140.43 348.84 148.38 311.22 181.34 319.15 190.54 367.28 155.62 369.3 152.6 368.94 137.23"/><path class="cls-9" d="M383.2,218.48a10.64,10.64,0,0,0,2-1.57,4.07,4.07,0,0,0,.89-2.08" transform="translate(-16.79 -62.23)"/><path class="cls-9" d="M255.19,227.11l-14.1-.51c-.92,0-2-.31-3.11.64a8.14,8.14,0,0,0-1,1.24c-4.14,5.79-6.7,9.4-7.3,11.51l.49-.38c1.1-1.53,1.15,1.75,2.76.57.09-.06,2.16-1.11,2.26-1.14.45-.44.2-3.23.82-3.53a4.82,4.82,0,0,1,2-.58c.23-.1.62,0,.87-.05.44-.06,1,.05,1.45,0,5,6-4.55,4.59-3.94,5s3.45.6,3.45,1.28a7.66,7.66,0,0,0-.64,2c0,.69.93,2.22,1.47,2.22.9-.88,3.36-3.32,3.2-3.07.07.11.3-.62.37-.51a22.93,22.93,0,0,0,2-2.79c.22-.35,1.26-.73,1.46-1.09.62-.06,1.09-.57,2.22-1.26a7,7,0,0,0,2.61-3C254.11,230.17,255.44,227.58,255.19,227.11Z" transform="translate(-16.79 -62.23)"/><polyline class="cls-9" points="384.82 347.66 392.98 359.94 384.07 370.73 373.14 358.31"/><polyline class="cls-9" points="289.79 361.4 285.1 380.3 270.84 379.85 274.08 358.1"/></g><g id="Capa_6" data-name="Capa 6"><path class="cls-4" d="M329.71,153.59a6.62,6.62,0,0,0-3.92,1.17,5.85,5.85,0,0,0-1.26,1.26,44.89,44.89,0,0,0-6,12.54c-1.77,6.26-3.29,11.59-3.58,18.44,0,0,0,.51-.24,8.14a2.67,2.67,0,0,0,2.08,2c1.29.12,2.81-1.25,2.75-3.25s.13-4.17.29-6.36A74.63,74.63,0,0,1,322,171.83a66.77,66.77,0,0,1,6.77-17.05" transform="translate(-16.79 -62.23)"/><path class="cls-4" d="M356.91,154.33A6.62,6.62,0,0,0,353,155.5a5.75,5.75,0,0,0-1.25,1.26,44.75,44.75,0,0,0-6.05,12.54c-1.77,6.26-3.28,11.59-3.57,18.44,0,0,0,.51-.25,8.14a2.68,2.68,0,0,0,2.08,2c1.3.12,2.81-1.25,2.75-3.25s.13-4.17.29-6.36a75.33,75.33,0,0,1,2.17-15.68,66.77,66.77,0,0,1,6.77-17" transform="translate(-16.79 -62.23)"/><path class="cls-4" d="M352.33,216.77l-1.17-26.14a1.61,1.61,0,0,0-1.68-1.53l-34.59,1.55a1.61,1.61,0,0,0-1.53,1.67l.17,3.77.14,3.17.86,19.2a1.61,1.61,0,0,0,1.68,1.54l34.59-1.55A1.61,1.61,0,0,0,352.33,216.77Z" transform="translate(-16.79 -62.23)"/><path class="cls-4" d="M335.57,237.43c4.06-3.67,6.7-6.54,11.15-9.76.43-.38,6-5.28,6.47-5.67l-.38-3.87-1.26-18.39-.81-5.54H313.43l.72,26,.64,16.4.65,15.74,6.2-.58C325.93,244.58,329.54,242.9,335.57,237.43Z" transform="translate(-16.79 -62.23)"/><path class="cls-4" d="M314.66,191.43A108.06,108.06,0,0,1,349.89,190" transform="translate(-16.79 -62.23)"/><path class="cls-4" d="M336.64,253.9l2.52-1.55,25.51-15.72,9.4,4.37a63.37,63.37,0,0,1,.36,10.08,52.26,52.26,0,0,1-3.32,17.42c-2.17,5.57-5,9.37-7.85,13.27-2.61,3.55-3.6,4.29-6.59,8a135.89,135.89,0,0,0-10,14.48c-4.13,7-5.56,12.07-9.46,24.49-2.16,6.87-5.46,17.2-9.82,30.18l-38.77-2c.93-6.07,2-12.38,3.38-18.9,1.63-7.91,3.27-14.24,6.48-26.57,5.11-19.61,9.1-33.42,10.13-37,1.73-6,3.32-11.53,5.45-18.32,1.31-4.19,2.46-7.69,3.29-10.21l18.05,5.7,3.91,5.87" transform="translate(-16.79 -62.23)"/><polyline class="cls-4" points="348.84 209.13 343.13 274.86 386.11 330.51 357.34 356.05 319.07 307.38 315.84 302.12 310.46 289.08 336.52 213.89"/><polyline class="cls-4" points="271.87 294.7 266.28 350.34 301.44 356.95 310.63 296.68"/><path class="cls-4" d="M318.83,415.28c-.23,2.43-.47,3.29-.64,4.66a34,34,0,0,1-.7,4.59,7.74,7.74,0,0,1-6.9,5.15l-24.87-5.51a6.54,6.54,0,0,1-2.57-2.89c-.39-.92-.57-1.84-.32-4.22.16-1.53.08-3.59.4-6.06" transform="translate(-16.79 -62.23)"/><path class="cls-4" d="M402.89,392.74l5.39,6.94a4.89,4.89,0,0,1-.61,6.63l-21,18.77a6,6,0,0,1-4.33,1.18,5.87,5.87,0,0,1-3.53-1.82c-2.08-2.88-4.5-5.7-6.58-8.59" transform="translate(-16.79 -62.23)"/></g><g id="Capa_15" data-name="Capa 15"><path class="cls-10" d="M328.84,354.57c1.35-5.11,3.14-11.43,5.83-19.73,3.44-10.57,5.53-17,9.21-24.68a121,121,0,0,1,14.55-23.22c2.59-3.25,4.94-5.85,6.71-7.71-.08.83-.15,1.66-.23,2.49-1.14,1.51-2.76,3.67-4.63,6.3a187.38,187.38,0,0,0-14.56,23c-3,5.74-5.06,11.89-9.27,24.17-3,8.8-5.32,16.22-6.89,21.52" transform="translate(-16.79 -62.23)"/></g><g id="Capa_20" data-name="Capa 20"><path class="cls-6" d="M214.4,315.68a48.81,48.81,0,0,1-4.08-15.15c-.23-2.31-.34-5.08.68-15,1.69-16.42,2.95-18.23,2.18-23.86a36.36,36.36,0,0,0-6.27-15.63" transform="translate(-16.79 -62.23)"/><path class="cls-6" d="M149.29,285.13c1,3.87,3.81,9.7,4.67,12a68.35,68.35,0,0,0,6.29,13.61,56.26,56.26,0,0,0,5.37,7.24" transform="translate(-16.79 -62.23)"/><path class="cls-6" d="M90,305a83.79,83.79,0,0,1,10.69,18.15c5.48,12.78,4.45,19.39,9.26,29.11,2.8,5.66,8,13.19,18.48,20.31" transform="translate(-16.79 -62.23)"/></g><g id="Capa_26" data-name="Capa 26"><path class="cls-6" d="M149.29,285.13c.82,5.51,7.22,21.56,4.84,14.25-.06-.21,1.7,6.34,2.5,8.8a29.4,29.4,0,0,0,3.6,7.5c1.93,2.47,2.46,3,3.37,4.42" transform="translate(-16.79 -62.23)"/><path class="cls-11" d="M169.26,317.76c-.74-1.16-2.85,5.79-9-4.46-.33-.57-.95-2.77-2-4.77a88.71,88.71,0,0,1-5-11.66" transform="translate(-16.79 -62.23)"/></g><g id="Capa_21" data-name="Capa 21"><path class="cls-7" d="M212.85,259.75c1.69-.71,3.5-1.55,5.38-2.54,2.16-1.15,4.11-2.32,5.84-3.46" transform="translate(-16.79 -62.23)"/><path class="cls-7" d="M212,276.62a19.43,19.43,0,0,0-10.66-7.41" transform="translate(-16.79 -62.23)"/><path class="cls-7" d="M211,285.13a13.34,13.34,0,0,1,2.41-5.87,14.27,14.27,0,0,1,9.25-5.43" transform="translate(-16.79 -62.23)"/><path class="cls-7" d="M210.66,302.49a14.68,14.68,0,0,0-3.6-5.23,12.46,12.46,0,0,0-4.46-2.81" transform="translate(-16.79 -62.23)"/><path class="cls-7" d="M212.81,311.23a12.08,12.08,0,0,1,2.62-4.91A10.14,10.14,0,0,1,220,303.5" transform="translate(-16.79 -62.23)"/><path class="cls-7" d="M105.75,318.62l-4.45,6" transform="translate(-16.79 -62.23)"/><path class="cls-7" d="M92.31,329.32a14,14,0,0,0,3.3,3.09,19.16,19.16,0,0,0,4.06,1.86,16,16,0,0,1,5.86,4.49" transform="translate(-16.79 -62.23)"/><path class="cls-7" d="M113.33,338.5a11.08,11.08,0,0,0-3.7,4.65c-2.25,5.45,1.05,10.65,1.41,11.19" transform="translate(-16.79 -62.23)"/><path class="cls-7" d="M102.59,349.46a61.16,61.16,0,0,1,6.37,4.33A39.29,39.29,0,0,1,114,359" transform="translate(-16.79 -62.23)"/></g><g id="Capa_22" data-name="Capa 22"><polygon class="cls-12" points="132.21 260.58 165.17 245.95 167.01 251.03 136.81 264.2 134.74 265.11 132.21 260.58"/><polyline class="cls-12" points="143.83 274.22 136.81 264.2 164.88 251.96 168.13 262.45"/><path class="cls-3" d="M155.28,303a19.23,19.23,0,0,1-8.08,2.32c-6.4.35-11.29-2.78-13.43-4.19-5.17-3.4-5.19-5.94-10.52-9a26.57,26.57,0,0,0-7.79-3,27.41,27.41,0,0,1,17.13-3.83,32,32,0,0,1,16.62,8.32,21,21,0,0,1,5.37,7.39A19,19,0,0,1,155.28,303Z" transform="translate(-16.79 -62.23)"/><path class="cls-3" d="M151.82,293c1.54-5.44,4.08-8,6-9.33a46.6,46.6,0,0,1,5.26-2.59c5.51-2.53,6.28-2.54,7.93-3.71a16.87,16.87,0,0,0,5.19-6.29c3.2-6,2.41-12,2-14.81a30.1,30.1,0,0,0-2.29-8.17,58.53,58.53,0,0,1-7.66,9.19c-1.34,1.3-2.2,2-5.71,5.28-3.24,3-4.86,4.55-5.27,5-5.65,6.41-6,15-6.13,17.44A32,32,0,0,0,151.82,293Z" transform="translate(-16.79 -62.23)"/></g><g id="Capa_24" data-name="Capa 24"><path class="cls-13" d="M98.93,263A16.12,16.12,0,0,0,97,279a16.24,16.24,0,0,0,2,3.42c1.28-2.37,2.54-4.41,3.69-6.13a35.44,35.44,0,0,1,5.5-7,25.81,25.81,0,0,1,5.7-4.12,23,23,0,0,1,3-1.32,21.71,21.71,0,0,0-8.59-3,14.39,14.39,0,0,0-5.39.23A12.27,12.27,0,0,0,98.93,263Z" transform="translate(-16.79 -62.23)"/><path class="cls-13" d="M76.23,263.54" transform="translate(-16.79 -62.23)"/><g id="Capa_23" data-name="Capa 23"><path class="cls-3" d="M150.15,287.42c-4.48-5.26-9.4-7.57-12.64-10.16-4.63-3.69-3.35-1.88-17.5-11.07a32.65,32.65,0,0,0-7.89-3.91c-5.6-1.87-8.63-1.11-9.46-.87a12.2,12.2,0,0,0-4.25,2.22,21,21,0,0,1,4.93-5.11,20.47,20.47,0,0,1,6.25-3.13,20.08,20.08,0,0,1,12.06.43c3.5,1.21,5.59,3.08,8.48,5.62,1.14,1,2.19,2,8.45,9.73,5.45,6.7,6.34,8,7.3,9.66C147.73,284,149.48,285.41,150.15,287.42Z" transform="translate(-16.79 -62.23)"/><path class="cls-13" d="M176,293.05a6.69,6.69,0,0,1,1.68,1.58A6.56,6.56,0,0,1,179,299a6.65,6.65,0,0,1-.31,1.6c-.83-.74-1.61-1.35-2.31-1.86a14.74,14.74,0,0,0-3.13-1.94,11.06,11.06,0,0,0-2.82-.8,9.53,9.53,0,0,0-1.37-.1,9.17,9.17,0,0,1,3-2.35,6,6,0,0,1,2.16-.66A5.26,5.26,0,0,1,176,293.05Z" transform="translate(-16.79 -62.23)"/><path class="cls-3" d="M159.19,309.58c1-2.65,2.66-4.22,3.58-5.67,1.31-2.07,1.06-1.19,5.36-6.71a14.11,14.11,0,0,1,2.57-2.6,6.62,6.62,0,0,1,3.61-1.64,5.06,5.06,0,0,1,2,.27,8.69,8.69,0,0,0-5.55-1.64,8.44,8.44,0,0,0-4.69,1.83,9.9,9.9,0,0,0-2.56,3.34,33.1,33.1,0,0,0-2,4.94,30.64,30.64,0,0,0-1.54,4.74C159.68,307.94,159.18,308.72,159.19,309.58Z" transform="translate(-16.79 -62.23)"/><path class="cls-3" d="M159.19,309.58a79.32,79.32,0,0,1-1.47-8.07c-.4-3-.33-4.14.08-5.31a9.22,9.22,0,0,1,2.7-3.79,10.49,10.49,0,0,1,2.84-1.7,5.59,5.59,0,0,1,2.81-.66,2.08,2.08,0,0,1,1.64.69,1.79,1.79,0,0,1,.11,1.53,10.42,10.42,0,0,0-1.62,1c-1,.79-2.16,2-3.54,5.15-1,2.19-1,2.89-2.35,7C159.88,306.91,159.49,308.78,159.19,309.58Z" transform="translate(-16.79 -62.23)"/></g><path class="cls-3" d="M150.15,287.42a188.32,188.32,0,0,0-3.2-19.73c-1.54-7.29-2.59-9.77-4.47-12.12a22.11,22.11,0,0,0-9.13-6.53,24.65,24.65,0,0,0-7.77-1.61c-4.28-.34-6.12.39-6.88.74-1.11.51-2.71,1.26-3.13,2.89a4.43,4.43,0,0,0,1,3.62,23.56,23.56,0,0,1,4.48,1.09c2.88,1,6.51,2.9,12.15,9,3.93,4.24,4.53,5.85,10.9,14.05C146.44,281.83,148.82,285.81,150.15,287.42Z" transform="translate(-16.79 -62.23)"/></g><g id="Capa_25" data-name="Capa 25"><path class="cls-14" d="M116.55,254.68a40.24,40.24,0,0,1,8.77,3.18,44.11,44.11,0,0,1,8.66,5.82,45.84,45.84,0,0,1,6.72,6.55,48.66,48.66,0,0,1,3.73,5.26,61.68,61.68,0,0,1,5.72,11.93" transform="translate(-16.79 -62.23)"/><path class="cls-14" d="M167.9,292.27a11.14,11.14,0,0,0-4,2.9,12.92,12.92,0,0,0-1.82,2.93,27.17,27.17,0,0,0-2.33,6.62,28.34,28.34,0,0,0-.61,4.86" transform="translate(-16.79 -62.23)"/></g><g id="Capa_19" data-name="Capa 19"><path class="cls-1" d="M221.88,255.18a7.53,7.53,0,0,1,1.21-5.29c.79-1.06,1.36-1,1.91-2,1.1-2-.5-3.39.26-5.74a5.75,5.75,0,0,1,3.93-3.71c2.17-.49,3.33,1.12,4.49.4,1.55-1,.07-4.2,1.79-5.5,1.17-.89,3.09-.3,4.08.25a5.16,5.16,0,0,1,2.62,4.5c-.08,1.79-1.32,2-1.47,4.06-.12,1.69.69,1.87.64,3.7a6.67,6.67,0,0,1-1.79,4.34c-1.16,1.14-2,.84-3.46,2-1.31,1.06-.9,1.67-2.15,2.81-.46.42-2.15,2-4,1.66-1.42-.23-1.36-1.34-2.81-1.53s-1.88.65-3.57.51A5.35,5.35,0,0,1,221.88,255.18Z" transform="translate(-16.79 -62.23)"/><path class="cls-1" d="M208.13,249.45a8.84,8.84,0,0,0-6.33-1.36c-1.74.39-2.22,1.27-3.78,1.26-2.57,0-5.36-2.33-5.29-4.3.06-1.54,1.84-1.88,2-3.88a4.46,4.46,0,0,0-1.05-3c-1.57-1.9-3.54-1-4.91-2.64-1.12-1.36-1.34-3.83-.11-5.13.85-.9,2.29-.88,3.21-.87,2.19,0,2.87,1,3.77.5,1.12-.62.94-2,1.07-3.17.21-1.8-1.81-2.09-.93-4.1.74-1.71,4.48-1.46,6.4.33a2.55,2.55,0,0,1,.52.61c1.07,1.86-1.54,3.91-.9,5.61s3.08,2.4,5.54,1.17c1.8-.9,2-2.39,4.43-2.18,1.39.12,1.64,4,1.67,4.48.09,1.47.19,3.16-.87,4.22-1.21,1.23-3,.66-3.22,1.41-.27.92,2.5,1.76,3.21,4.08.43,1.36-.82,2.36-1.21,3.19C210,246.81,209.46,248.31,208.13,249.45Z" transform="translate(-16.79 -62.23)"/><path class="cls-1" d="M204.38,270.43a6.5,6.5,0,0,0-4.52,1c-1.39,1-1.77,2.31-2.7,2.24s-.94-1.54-2.28-2.18c-.51-.25-1-.28-4.32.52-2.92.72-3.62,1-4.62.65-.68-.26-1.74-.92-1.82-1.81s1.11-1.34,1.94-3.27c.42-1,.72-1.68.44-2.23-.82-1.61-5.66.08-6.35-1.37-.35-.74.59-1.86,1.11-2.47,1.33-1.58,3.77-2.87,5.25-2.09.86.46.8,1.3,1.57,1.43,1,.17,1.37-1.16,2.69-1.27a4.25,4.25,0,0,1,2.84,1.37c1,.86.92,1.31,1.56,1.52,1,.32,1.53-.65,3-.86s3.63.54,3.93,1.62c.23.87-.77,1.37-.65,2.51a5,5,0,0,0,2,2.79Z" transform="translate(-16.79 -62.23)"/><path class="cls-1" d="M215.14,277.2c1-1.24,2.07-3,1.54-4.65-.38-1.19-1.33-1.36-1.33-2.36,0-1.65,2.89-1.58,4.13-2.24a19.27,19.27,0,0,0,2.24-1.4c1.48-1-1.9-2.81,2.19-3.49,1.15-.19,1.88,2.78,3.15,2.67.53-.05.88-.62,1.56-1.77,1.19-2,.88-2.67,1.62-3.54a4.47,4.47,0,0,1,5.35-.91,4.63,4.63,0,0,1,1.68,2.81c.41,1.58-.18,2.06.33,2.86.84,1.33,2.83.53,3.76,1.78a3.41,3.41,0,0,1-.56,4.06c-1.91,1.78-5.61,1-6.5.66-1.94-.78-2.51-.47-3.13-.1-.88.54-.95,1.85.12,3.81,1.41,2.57,3.1,1.86,3.15,3.47,0,1.28-1.37,2.67-2.76,3-1.89.48-4.48-.77-6.2-1.6a2.85,2.85,0,0,0-1.84-.51c-1.31.25-1.31,1.83-2.57,2.28-1.48.53-3.91-.77-4.39-2.38-.26-.86.07-1.75-.54-2.24A1.38,1.38,0,0,0,215.14,277.2Z" transform="translate(-16.79 -62.23)"/><path class="cls-1" d="M203.17,296a4.92,4.92,0,0,1-1.85,1.57,4.63,4.63,0,0,1-3.39.29c-1.11-.4-1.57-1.21-1.94-1s.09,1.13-.41,2a2.73,2.73,0,0,1-1.67,1.15c-1.79.58-4.22,0-4.48-1.07s1.55-1.56,1.42-2.92a2.84,2.84,0,0,0-2.06-2.11c-1.15-.32-1.66.38-4,.55-1.21.09-1.82.13-2.18-.25-.73-.76-.28-2.94,1-4.14,1.79-1.68,4.46-.76,4.84-1.91.15-.47-.26-.72-1.14-3-.54-1.44-.49-1.63-.44-1.74.61-1.38,5.86-1.27,6.87.8.47,1-.16,2,.38,2.36s1.87-.45,3-1.08c2-1.14,6.58-3.11,8.46-1.65,1.41,1.1,1.5,4.3.14,5.82s-4.2,1.07-4.35,2.08c-.05.34.35.81,1.16,1.74a15,15,0,0,0,1.35,1.38" transform="translate(-16.79 -62.23)"/><path class="cls-1" d="M218.44,304.08c-1.08,0,3.7-1.42,4-3.25s-3.1-2.8-2.9-4.65,4.18-3.88,7.29-3.14c1.9.46,2.47,1.68,3.66,1.34,1.51-.43,1.19-2.56,3.17-4.22a7,7,0,0,1,4.63-1.44c2.52.09,6,1.55,6.4,4.2.29,2-1.36,3.65-1.69,4-2.11,2.12-5,.2-6.22,1.73-1.32,1.68,1.5,4.29.09,7a4.75,4.75,0,0,1-4.76,2.46c-1.06-.25-1.22-1-2.09-1.15-2-.3-3,4.14-4.49,4-1.29-.15-.84-3.54-3.34-5.32C220.48,304.36,220,304.12,218.44,304.08Z" transform="translate(-16.79 -62.23)"/></g><g id="Capa_14" data-name="Capa 14"><polygon class="cls-13" points="81.3 316.39 227.22 245.42 226.58 248.69 83.96 317.42 81.3 316.39"/><path class="cls-14" d="M175.94,248a21.57,21.57,0,0,1-2.13,8.08c-1.44,3-3.19,4-7.75,8.68a75.55,75.55,0,0,0-6.63,7.24,40.16,40.16,0,0,0-6.3,13.19,40.65,40.65,0,0,0-1.31,7.71" transform="translate(-16.79 -62.23)"/><path class="cls-14" d="M115.46,289.13a25.93,25.93,0,0,1,13.5,0c2.34.67,5.85,2.63,12.85,6.55,2.22,1.24,4.24,2.42,7.83,4.34,2.37,1.27,4.34,2.27,5.64,2.93" transform="translate(-16.79 -62.23)"/></g><g id="Capa_27" data-name="Capa 27"><path class="cls-4" d="M104.07,350.23a19.4,19.4,0,0,1-6.7,4.23c-2.23.82-3.28.7-4,.19a2.38,2.38,0,0,1-1-1.77c0-1.11.92-2,3.15-2.46A62.57,62.57,0,0,1,104.07,350.23Z" transform="translate(-16.79 -62.23)"/><path class="cls-4" d="M104.07,350.23a29.32,29.32,0,0,1-7.9.69c-2.39-.12-3.29-.88-3.73-1.66a2.38,2.38,0,0,1-.18-2c.44-1,1.69-1.34,3.91-.74A65.2,65.2,0,0,1,104.07,350.23Z" transform="translate(-16.79 -62.23)"/><path class="cls-4" d="M104.07,350.24a21.77,21.77,0,0,0-5.08-6.5c-1.86-1.61-2.89-1.9-3.72-1.69a2.1,2.1,0,0,0-1.47,1.29c-.37,1,.28,2.23,2.24,3.5A63.4,63.4,0,0,0,104.07,350.24Z" transform="translate(-16.79 -62.23)"/><path class="cls-4" d="M112.92,339.1a26.52,26.52,0,0,1-2.89-9.75c-.26-3,.22-4.31,1-5a2.81,2.81,0,0,1,2.42-.65c1.33.34,2.07,1.82,1.92,4.74C115.2,331.07,113.64,336.47,112.92,339.1Z" transform="translate(-16.79 -62.23)"/><path class="cls-4" d="M112.92,339.1a38.94,38.94,0,0,1,1.7-10c.9-2.92,2.09-3.77,3.15-4.05a2.79,2.79,0,0,1,2.46.48c1,.88,1,2.54-.37,5.1C118.5,332.89,114.73,337.05,112.92,339.1Z" transform="translate(-16.79 -62.23)"/><path class="cls-4" d="M112.92,339.1a26.33,26.33,0,0,0,9.31-4.06c2.5-1.76,3.16-2.94,3.18-4a2.81,2.81,0,0,0-1.06-2.27c-1.11-.8-2.73-.41-4.86,1.58C117.59,332.19,114.47,336.86,112.92,339.1Z" transform="translate(-16.79 -62.23)"/><path class="cls-4" d="M92.4,330.13a26.29,26.29,0,0,1-10,1.59c-3-.14-4.25-.78-4.85-1.7a2.8,2.8,0,0,1-.32-2.48c.5-1.28,2.07-1.82,5-1.28C84.74,326.82,89.89,329.07,92.4,330.13Z" transform="translate(-16.79 -62.23)"/><path class="cls-4" d="M92.4,330.13a39,39,0,0,1-9.71-3c-2.78-1.28-3.47-2.57-3.61-3.66a2.78,2.78,0,0,1,.8-2.37c1-.92,2.66-.72,5,1C87,323.79,90.61,328.08,92.4,330.13Z" transform="translate(-16.79 -62.23)"/><path class="cls-4" d="M92.4,330.14a26.22,26.22,0,0,0-2.8-9.77c-1.42-2.71-2.5-3.52-3.59-3.68a2.82,2.82,0,0,0-2.39.76c-.94,1-.76,2.64.94,5C86.17,324.6,90.38,328.31,92.4,330.14Z" transform="translate(-16.79 -62.23)"/><path class="cls-4" d="M106,320.5a25.05,25.05,0,0,1-4-8.31c-.7-2.68-.49-3.87.1-4.63a2.31,2.31,0,0,1,2-.9c1.17.11,2,1.34,2.36,4A76.23,76.23,0,0,1,106,320.5Z" transform="translate(-16.79 -62.23)"/><path class="cls-4" d="M106,320.5a36.9,36.9,0,0,1-.13-9.17c.31-2.73,1.19-3.66,2-4.05a2.36,2.36,0,0,1,2.16.09c1,.65,1.3,2.13.49,4.6A70.68,70.68,0,0,1,106,320.5Z" transform="translate(-16.79 -62.23)"/><path class="cls-4" d="M105.94,320.5a21.33,21.33,0,0,0,7.27-4.89c1.85-1.9,2.23-3.05,2.07-4A2.61,2.61,0,0,0,114,309.7c-1.06-.57-2.37,0-3.87,2.07A71.75,71.75,0,0,0,105.94,320.5Z" transform="translate(-16.79 -62.23)"/><path class="cls-4" d="M90.32,306.4a26.09,26.09,0,0,1-9.65-3.19c-2.65-1.53-3.42-2.65-3.53-3.74a2.79,2.79,0,0,1,.85-2.35c1-.9,2.67-.66,5,1.13C85,300,88.57,304.31,90.32,306.4Z" transform="translate(-16.79 -62.23)"/><path class="cls-4" d="M90.32,306.4a38.74,38.74,0,0,1-7.26-7.11c-1.88-2.41-1.91-3.88-1.53-4.91a2.83,2.83,0,0,1,1.8-1.74c1.32-.35,2.69.59,4,3.21C88.41,298.28,89.67,303.76,90.32,306.4Z" transform="translate(-16.79 -62.23)"/><path class="cls-4" d="M90.32,306.41a26.32,26.32,0,0,0,2-10c0-3.05-.61-4.27-1.51-4.91a2.77,2.77,0,0,0-2.46-.42c-1.29.45-1.9,2-1.48,4.89C87.32,298.63,89.36,303.86,90.32,306.41Z" transform="translate(-16.79 -62.23)"/><path class="cls-4" d="M119.61,357.83a18.59,18.59,0,0,1-1.9-7.46c-.07-2.31.38-3.25,1.09-3.76a2.41,2.41,0,0,1,2-.41c1.06.3,1.59,1.45,1.33,3.65A59.4,59.4,0,0,1,119.61,357.83Z" transform="translate(-16.79 -62.23)"/><path class="cls-4" d="M119.61,357.83a28,28,0,0,1,1.84-7.51c.87-2.17,1.88-2.78,2.75-2.95a2.43,2.43,0,0,1,2,.45c.81.71.74,2-.54,3.84A63.67,63.67,0,0,1,119.61,357.83Z" transform="translate(-16.79 -62.23)"/><path class="cls-4" d="M119.6,357.83a22.87,22.87,0,0,0,7.77-2.73c2.11-1.24,2.7-2.11,2.76-2.94a2,2,0,0,0-.75-1.75c-.87-.65-2.2-.41-4,1A63.79,63.79,0,0,0,119.6,357.83Z" transform="translate(-16.79 -62.23)"/></g><g id="Capa_13" data-name="Capa 13"><polyline class="cls-3" points="72.6 308.69 221.83 236.46 226.58 245.58 79.33 317.42"/><path class="cls-3" d="M236.56,299.69c1.47-.73,2.05-1,3.92-1.83a5.14,5.14,0,0,1,4.72,9c-1.84,1-2.29,1.21-5.15,2.6" transform="translate(-16.79 -62.23)"/><path class="cls-3" d="M96.11,379.65a23.07,23.07,0,0,1-4.43,1.73,5.25,5.25,0,0,1-5.89-2.28,5.64,5.64,0,0,1,1.34-7c1.85-.95,2.49-1.3,5.37-2.64" transform="translate(-16.79 -62.23)"/><polyline class="cls-3" points="76.78 314.25 153.42 347.99 224.89 306.13 227.21 241.27"/></g><g id="Capa_18" data-name="Capa 18"><ellipse class="cls-8" cx="103.12" cy="360.37" rx="26.4" ry="26.96"/></g><g id="Capa_12" data-name="Capa 12"><polygon class="cls-8" points="314.03 183.38 310.46 177.95 280.31 195.49 243.29 264.82 248.94 267.75 284.29 201.87 314.03 183.38"/><polygon class="cls-8" points="228.21 280.6 74.03 373.31 77.14 379.05 233.19 285.28 228.21 280.6"/><path class="cls-8" d="M249.27,347.94c1.35-.86,5.8-3.36,7.74-5.31a38.76,38.76,0,0,0,3.83-4.63c1.38-1.85,2.87-4.86,4.88-8-1.52-1.55-3.4-2.63-4.92-4.17-.53.53-.61,1.33-1.43,2.4s-1.28,1.86-2,2.94a34,34,0,0,1-2.9,3.56,43,43,0,0,1-5.28,5.07c-4,3.22-6.27,3.52-6.26,4.84,0,.8.84,1.94,4.86,3.32" transform="translate(-16.79 -62.23)"/><path class="cls-8" d="M233.21,354c1.8,2,4.26,4.81,6.95,8.41a106.08,106.08,0,0,1,11.71,19.7c3.46,7.65,4.79,11.56,5.33,17.35.44,4.62.21,10.33-4.13,14.49-6.25,6-16.57,2.91-17.38,2.66-2.31-.73-3.75-1.67-6.62-3.55-4.5-2.94-7-5.48-13.39-11.83-9.25-9.15-10.36-10.07-12.5-11.16a29.49,29.49,0,0,0-12-3A30.7,30.7,0,0,0,174,391.68a38.92,38.92,0,0,1,14.38-8.25,21.39,21.39,0,0,1,7.67-1.31c5.63.19,9.69,2.93,12.85,5.11,1.71,1.18,4.62,4.1,10.39,9.89,5.48,5.51,7.32,7.51,10.86,10.13,2.21,1.64,3.93,3.25,6.73,4.3a12.66,12.66,0,0,0,7.88.91c.28-.07,5.41-1,6.9-5.27,1.19-3.38.56-7-1.69-14.31a86,86,0,0,0-7.49-16.62c-2.18-3.81-4.19-6.72-5.7-8.9-2.82-4.07-5.4-7.38-7.38-9.81Z" transform="translate(-16.79 -62.23)"/><path class="cls-8" d="M91.64,431c-.23.23-2.47,2.42-3.44,3.56-.15.17-.43.5-.34.83s.54.5.72.56c1.3.46,3.68-1.27,5-1.84,1.24,2,1.34,3.89,2.58,5.89a39.27,39.27,0,0,1-4,2.16c-3.56,1.39-6.31,2.21-8.48.92a4.92,4.92,0,0,1-2.3-3.48c-.2-1.62.62-2.85,1.83-4.65a22,22,0,0,1,4.34-4.57,39.28,39.28,0,0,1,3.32-2.58Z" transform="translate(-16.79 -62.23)"/></g><g id="Capa_16" data-name="Capa 16"><polygon class="cls-12" points="393 358.3 402.72 365.02 389.9 389.86 375.57 389.91 383.33 386.8 383.48 370.81 393 358.3"/><path class="cls-12" d="M266,445.94a33.87,33.87,0,0,1,5.08-2.64c2.12-1,3-1.32,7.56-2.16,3.21-.6,5.91-1.09,7.93-1.44l16.95,3.07-2.29,10.59Z" transform="translate(-16.79 -62.23)"/></g><g id="Capa_17" data-name="Capa 17"><path class="cls-12" d="M392.36,452.14a11.41,11.41,0,0,1,3.38-3.21,11.54,11.54,0,0,1,5.86-1.72c-.05,1.65-.11,3.29-.17,4.94" transform="translate(-16.79 -62.23)"/></g><g id="Capa_10" data-name="Capa 10"><path class="cls-9" d="M331,241.63c-1.2.48-2.6,2.17-6.39,2.17-2.93,0-4.51-.55-5.48-1.22l-.84-.43c-.14-.14.11.29-.95-.7-.81-.74-1-.43-1.45-.12a2.09,2.09,0,0,0-.18,1.67,8,8,0,0,0,2.52,2,19.12,19.12,0,0,1,3.32,1.81,2,2,0,0,1,.49.48,3,3,0,0,1,.13,2.59c-.68,1.33-1.64,2.05-3.83,3.49a50.3,50.3,0,0,1-4.73,2.94,44.07,44.07,0,0,0,10.19,2,10.35,10.35,0,0,0,8.09-2.54c2.27-1.78,4.73-3.68,7.66-5.94" transform="translate(-16.79 -62.23)"/></g><g id="Capa_11" data-name="Capa 11"><path class="cls-12" d="M361.43,255.57s0,8.87-3.53,11.28a3.67,3.67,0,0,0-1,.84,1,1,0,0,0,0,1.19c.38.39,1,.22,1.52,0a11.28,11.28,0,0,0,3.86-2.95V276.3a4.25,4.25,0,0,0,.22,1.66,1.46,1.46,0,0,0,1.27,1c1.1,0,1.42-1.5,1.41-2.6,0-2.73-.07-5.46-.11-8.19l.57,7.89c.07,1,.49,2.25,1.45,2.14s1.1-1.35,1-2.27l-.78-10.44c.47,2.5.95,5,1.42,7.51a2.16,2.16,0,0,0,.85,1.62,1.5,1.5,0,0,0,1.93-.88v0a4.37,4.37,0,0,0,.05-2.38c-.46-2.79-.93-5.59-1.39-8.38a29.9,29.9,0,0,0,1.64,5.94,1.16,1.16,0,0,0,1.52.61,1.18,1.18,0,0,0,.54-.47.64.64,0,0,0,.06-.18,3.48,3.48,0,0,0-.14-1.57L371.59,258c-.83-3.43-1.83-7.12-4.62-9.27a10.14,10.14,0,0,0-8.86-1.31,22.43,22.43,0,0,0-8,4.65S354.71,258.26,361.43,255.57Z" transform="translate(-16.79 -62.23)"/></g><g id="Capa_3" data-name="Capa 3"><path class="cls-8" d="M353.88,94.73a19.4,19.4,0,0,1,6.81,2,17.81,17.81,0,0,1,6.14,5.57c2,2.88,2.43,6.22,3.17,10.6.09.51.08.51.15.87a27.83,27.83,0,0,0,3.75,9.45c2.88,5.67-.77,12.17-1.15,13-.26.54-.27.49-.45.89-1.76,4.11.24,8.09,1,11,1,3.95.7,10-1.89,12.61-5,5-18.84.28-18.77-2.33,0-1.83,13.06.43,15.17-4.32,1.8-4.07-5.14-11.43-14.73-19.24" transform="translate(-16.79 -62.23)"/></g><g id="Capa_4" data-name="Capa 4"><path class="cls-8" d="M332.87,95.42a16.13,16.13,0,0,0-.9,5.22c0,8.3,6.61,13.62,7.45,14.28A20.06,20.06,0,0,0,351.09,119a3.92,3.92,0,0,0,.82,0c4.41-.76,8.63-11.9,4.67-17.83-2.67-4-8.39-4.62-13.47-5.17A33.65,33.65,0,0,0,336,96" transform="translate(-16.79 -62.23)"/><path class="cls-8" d="M332.37,95.33a26.26,26.26,0,0,0-2.89.19,13.76,13.76,0,0,0-8.41,5.82c-.75,1.1-2.74,4-2.29,7.47a7.2,7.2,0,0,0,1.58,3.88,6.88,6.88,0,0,0,1.48,1.29c.21,0,0-.52.07-1.71s2.21-6.49,3.76-7.72a17.44,17.44,0,0,1,3.89-2.83,10.32,10.32,0,0,1,2.34-.9c1.91-.42,3.08,1,3.73.38.9-.79-.08-3.39-1.19-5.69" transform="translate(-16.79 -62.23)"/><path class="cls-8" d="M356.47,130.85c-.1-.52,6.24-21.68-4.72,4.48a15.1,15.1,0,0,0-.75,6.26c.63,4,2.34,6.51,2.9,8.8,1.05,4.31-2.08,5.12-2.9,11.26a14,14,0,0,0,3.48,10.93c3.65,4,9.45,3.27,13.79,1.23,6.47-3.06,10.8-14,4.86-26.28" transform="translate(-16.79 -62.23)"/></g><g id="Capa_2" data-name="Capa 2"><path class="cls-3" d="M332.72,95.36a30.9,30.9,0,0,1,7.57,4.39,32.83,32.83,0,0,1,9.71,13s1.44,3.52,3.11,19.72a23.84,23.84,0,0,0,6-5.23,24.52,24.52,0,0,0,4.25-7.77c.82-2.46,3.42-10.28-.53-17.2a16,16,0,0,0-6.66-6.52,14.4,14.4,0,0,0-2.66-1c-6.27-1.78-16.74-.18-19.29.24" transform="translate(-16.79 -62.23)"/><ellipse class="cls-3" cx="340.34" cy="69.1" rx="2.88" ry="2.74"/><path class="cls-3" d="M359.79,146.44l-.21-.17a16,16,0,0,1-3.28-3.67c-1-1.63-2.12-3.35-1.9-5.56a4.7,4.7,0,0,1,1.16-2.85,4.08,4.08,0,0,1,4.5-1.06c1.14.56,1.55,1.72,2,2.88a9.67,9.67,0,0,1,.08,5.7,11.22,11.22,0,0,1-1.74,3.76" transform="translate(-16.79 -62.23)"/><path class="cls-3" d="M371.55,137.63l-.25.09a15.82,15.82,0,0,1-4.84.93c-1.93,0-4,.09-5.74-1.24a4.6,4.6,0,0,1-1.86-2.46,4.09,4.09,0,0,1,1.41-4.4c1.07-.69,2.27-.44,3.47-.2a9.71,9.71,0,0,1,4.94,2.86,11.61,11.61,0,0,1,2.33,3.43" transform="translate(-16.79 -62.23)"/></g></svg>