<svg xmlns="http://www.w3.org/2000/svg" viewBox="0 0 652.57 585.56"><defs><style>.cls-1,.cls-2{fill:#6c63ff;}.cls-1,.cls-8{isolation:isolate;opacity:0.1;}.cls-11,.cls-2{opacity:0.1;}.cls-3{fill:#3f3d56;}.cls-4{fill:#edcfc3;}.cls-5,.cls-6{fill:none;}.cls-5{stroke:#d8bdb4;}.cls-12,.cls-13,.cls-5,.cls-6{stroke-miterlimit:10;}.cls-12,.cls-5{stroke-width:0.5px;}.cls-6{stroke:#000;}.cls-7{fill:#cbcbcb;}.cls-9{fill:#00bfa6;}.cls-10{fill:#846a62;}.cls-12,.cls-13{fill:#828282;stroke:#828282;}</style></defs><g id="Capa_22" data-name="Capa 22"><path class="cls-1" d="M992.93,375.14c0,31.34-5.12,62.08-14.9,88.89,0,32.77-9.21,62.48-24.14,84.14a101.5,101.5,0,0,1-12,14.49c-.17.18-.35.35-.52.52l-1,1-.3.29h0c-14.14,13.08-30.07,19.87-46.25,19.71H464.24c-29.62,0-56.44-17.11-75.87-44.78S357,473.4,357,431.17c-10.88-27.8-16.65-60.26-16.61-93.42,0-93.86,45.2-169.95,101-169.95,2,0,3.93.11,5.88.29C482.19,69.06,561.11,0,652.8,0c56.37,0,107.9,26.08,147.37,69.18,15-14,31.83-21.38,49-21.35,55.75,0,101,76.09,101,170q0,8.91-.57,17.78C976.85,267.61,993,319.68,992.93,375.14Z" transform="translate(-340.36)"/></g><g id="Capa_21" data-name="Capa 21"><ellipse class="cls-2" cx="356.69" cy="552.69" rx="199.91" ry="32.87"/></g><g id="Capa_2" data-name="Capa 2"><g id="Capa_14" data-name="Capa 14"><path class="cls-3" d="M614.4,532.59c-1.75,1-3.9,1.56-5.13,3.18-.4.52-.67,1.13-1.1,1.63-1.33,1.56-3.69,1.63-5.54,2.52-1.48.7-2.68,2-4.25,2.41a9,9,0,0,1-2.87.22l-9.72-.29c-3.08-.09-6.69.07-8.48,2.58a9.12,9.12,0,0,0-1.22,3c-.75,2.87-1.36,6.12.21,8.64,1.88,3,6,3.61,9.55,3.81a274.33,274.33,0,0,0,41.14-.8,33.53,33.53,0,0,1,5.58-.23c1.48.12,2.93.45,4.39.7,7.37,1.25,14.91.52,22.35-.22A11.58,11.58,0,0,0,663,559a3.89,3.89,0,0,0,2.33-2.77c.31-2.06-1.62-3.81-1.83-5.88-.15-1.46.55-3.09-.25-4.33a7.87,7.87,0,0,0-1-1c-1.34-1.39-1.73-3.42-2.06-5.32l-1.75-10.27a3.22,3.22,0,0,0-.84-1.94,3.14,3.14,0,0,0-1.24-.51c-7.62-1.72-15.43-.15-23,.81a61,61,0,0,1-11.77.59c-1.7-.11-2.36-.31-3.63.8S616,531.66,614.4,532.59Z" transform="translate(-340.36)"/><path class="cls-3" d="M734.58,542.43a16.78,16.78,0,0,1-4.26,1.67q-5.9,1.73-11.76,3.59a7.87,7.87,0,0,0-2.87,1.38c-1.36,1.2-1.71,3.16-1.81,5a6.27,6.27,0,0,0,.35,3,6,6,0,0,0,2,2.22c4.48,3.39,10.33,4.44,15.95,4.44s11.2-1,16.82-1.1c6.79-.18,13.76.78,20.29-1.12a17.14,17.14,0,0,1,3.86-.94,16.4,16.4,0,0,1,2.62.17,28,28,0,0,0,10.42-1,6.53,6.53,0,0,0,2.76-1.37,2.59,2.59,0,0,0,.74-2.82c-.36-.81-1.28-1.4-1.29-2.29a4.37,4.37,0,0,1,.33-1.24c.41-1.37-.25-2.8-.71-4.15-1.29-3.86-1.08-8.3-3.39-11.65s-6.55-4.73-10.58-5.26a29.35,29.35,0,0,0-9.85.28c-3.65.78-7.06,2.41-10.64,3.45-2.72-1-5.06-3.62-9.37-4-2.86-.24-5.31,5.44-6.28,7.84A8.53,8.53,0,0,1,734.58,542.43Z" transform="translate(-340.36)"/></g><g id="Capa_4" data-name="Capa 4"><g id="Capa_6" data-name="Capa 6"><path class="cls-4" d="M664.15,176.66c6.12-1.65,15.75-1.17,21.09-4.58l18.61-11.85c-5.05-.4-9.41-4-12-8.36s-3.66-9.43-4.54-14.41c-8,3.12-14.93,8.41-21.39,14-2.56,2.21-8,5.55-8.79,9s4.25,6.25,6.2,8.56C664,169.79,666.13,176.11,664.15,176.66Z" transform="translate(-340.36)"/><g id="Capa_18" data-name="Capa 18"><path class="cls-4" d="M586.38,242.74c-3.28,1.68.06,3.49-3.61,3.25-3.3-.21-12.5,5.5-15,3.31-1.82-1.58-4.34-8.74-5-12.25a112.6,112.6,0,0,1-2.58-12.43,12.46,12.46,0,0,0-.46-2.56c-1.22-1.45-5.14-2.76-5.16,3.54,0,12.23-.33,22.58,3,29.05,1,2,3.17,9.29,10.11,12.62,4.38.32,8.14-1.36,12.28-1.35s8.34.07,12.31-1.09,7.74-3.74,9.29-7.56v0a1.64,1.64,0,0,0-.38-1.94,1.37,1.37,0,0,0-.29-.2C595.3,251,593,246,586.76,243Z" transform="translate(-340.36)"/></g><g id="Capa_19" data-name="Capa 19"><path class="cls-5" d="M564.77,252a17.5,17.5,0,0,1-2.3-2.68c-1.13-1.65-2.7-3.93-2.81-6.83a14.23,14.23,0,0,0-.51-3.7c-.21-.79-.41-1.23-.83-1.47-.75-.45-2.78.15-3.42,2.51" transform="translate(-340.36)"/><path class="cls-6" d="M554.43,61.65l.51,502.12" transform="translate(-340.36)"/></g><path class="cls-7" d="M651.43,257.7a70.14,70.14,0,0,1-.4-11.77c0-.56.14-1.38.22-2.26-.38-1.38-.75-2.76-1.14-4.14-.09-.36-.2-.71-.3-1.07A4.75,4.75,0,0,1,648,232c-.64-2.2-1.27-4.4-1.87-6.61-.1-.38-.2-.77-.29-1.15-1.14.12-2.28.22-3.4.38-10.54,1.48-19.76,7.95-30.12,10.4-4.47,1-9.08,1.34-13.51,2.47-4.13,1-8,2.81-12.16,3.93s-8.6,1.53-12.55-.07c-.18,6.93.19,14,2.45,20.55s7.47,12.55,14.3,13.69c2.42.41,5.13.11,6.93-1.55a18.15,18.15,0,0,1,2.54-2.57,7,7,0,0,1,3.17-.77q24.64-2,49-6.05C652.06,262.33,651.7,260,651.43,257.7Z" transform="translate(-340.36)"/><path class="cls-7" d="M698.51,198.07a57.8,57.8,0,0,0-6.77-7.64,72.39,72.39,0,0,0-15.61-12.77,12,12,0,0,0-10.64-.28c-3.36,1.56-.44,12.19-2.68,15.13-2.26,2.76-4.27,1.64-5.76,4.88s-8.18,2.26-9.61,5.39c-2.51,5.6-6,10.65-9.49,15.66-2.18,3.12-4.39,6.28-7.33,8.69s-6.31,4-8.17,7.18c-.1.18-.2.37-.29.56,3,2.88,5.77,5.95,8.6,8.64l.39.38c2.67,1.17,4.59,3.41,6.26,6,4.62,4.48,9.2,9,13.67,13.61l1.46,1.53q11-9.7,21.49-19.91c5.94-5.8,11.88-11,18-16.68a42.89,42.89,0,0,0,6-6.28A21.75,21.75,0,0,0,698.51,198.07Z" transform="translate(-340.36)"/><path class="cls-8" d="M642.94,257.34c-.09-6.57-.2-13.14-.53-19.71-.22-4.32-.23-9-.8-13.42-10.27,1.73-19.27,8-29.41,10.54-4.45,1.09-9.06,1.42-13.49,2.59-4.12,1.08-8,2.88-12.12,4S578,243,574,241.4c-.12,6.94.31,14,2.62,20.53s7.58,12.49,14.42,13.57c2.43.39,5.13.07,6.91-1.61a19.28,19.28,0,0,1,2.52-2.59,7,7,0,0,1,3.17-.79q19.85-1.78,39.51-4.9C643.08,262.85,643,260.08,642.94,257.34Z" transform="translate(-340.36)"/><path class="cls-8" d="M701.31,192.91a57,57,0,0,0-6.76-7.64A72.41,72.41,0,0,0,679,172.47a12.06,12.06,0,0,0-10.64-.29c-3.36,1.56-2.11,7.33-4.36,10.27-2.26,2.76-4.76,9.41-6.25,12.64s-6-.66-7.47,2.47c-2.51,5.59-6,10.64-9.52,15.65-2.18,3.12-4.39,6.27-7.33,8.68s-6.32,4-8.18,7.17c-.58,1-1,2.09-1.54,3.1a11.55,11.55,0,0,1-1,1.42c7.13,8.69,12.71,19.23,18.37,28.65,1.29,2.15.78,1.72,2.13,3.85l5.93-.91c9.32-12.87,15.18-17.71,18.9-19.65a43,43,0,0,0,8.76-5.59c6.29-5.23,11.78-11.35,18-16.65a42.44,42.44,0,0,0,6-6.28A21.73,21.73,0,0,0,701.31,192.91Z" transform="translate(-340.36)"/></g><path class="cls-9" d="M775.85,294a.19.19,0,0,1,0-.07,5.19,5.19,0,0,1-1.5-2.65c-.14-.64-.29-1.27-.44-1.9a121.11,121.11,0,0,1-8.84-22.27c-1-3.44-2-6.9-3-10.37l-.18-.53c-1.21-3.72-2.18-7.5-3-11.31q-.68-2.55-1.34-5.1c-1.29-5-2.57-9.92-3.94-14.85-1-3.69-2.57-7.15-3.77-10.74-.85-1.94-1.7-3.89-2.56-5.83-1.28-2.87-2.49-5.78-3.77-8.66-1.48-3.34-3.63-5.4-6.17-7.94l0,0c-7.87-4.65-15-10.72-18.28-19.37a4.18,4.18,0,0,1,.72-4.19c-7.56-2.83-15.32-5.22-22.42-8.15a5.12,5.12,0,0,1-2.84-2.75,39.59,39.59,0,0,0-7.53,4.55c-2.06,1.8-4.42,3.19-6.64,4.83l-.27.19a46.65,46.65,0,0,0-18.51,33.26c-.34,4-1.9,7.88-2.83,11.77a37.2,37.2,0,0,0-1.46,10.1c.11,2.65.8,5.29.59,7.94-.28,3-1.67,5.85-1.54,8.87a15.5,15.5,0,0,0,.89,4.09,31.07,31.07,0,0,1,1.18,4.11c.6,3.28-.2,6.61-.55,9.91-1.13,10.82,2.4,21.57,2.86,32.43.19,4.55-.13,9.19,1.2,13.54a25.35,25.35,0,0,0,2.11,4.8,42.5,42.5,0,0,0,5.3,7.57c17.13-5.94,34.92-9.74,52.79-12.68,16.77-2.76,33.64-4.78,50.46-7.18l3.55-.53Z" transform="translate(-340.36)"/><path class="cls-9" d="M778.35,382.27c.41-8,.72-16-.94-23.84-.49-2.3-1.4-4.64-.89-6.94a24.32,24.32,0,0,1,1.48-3.62,11.14,11.14,0,0,0,.73-5.24c-.19-1.91-.88-3.79-.69-5.7a12.81,12.81,0,0,1,.94-3.4c.54-1.4,1-2.84,1.49-4.28.08-1.62.21-3.24.37-4.85a158,158,0,0,0-2.47-17.14c-.88-4.39-1.49-8.86-2.52-13.22a18,18,0,0,0-1-2.79c-.17-.29-.35-.58-.51-.88A101.72,101.72,0,0,1,767.62,275l-.24-.42c-3.46,1.21-6.91,2.4-10.38,3.58-30.06,10.22-60.85,19.36-88.47,36a32.77,32.77,0,0,0-1.67,8.05,22.64,22.64,0,0,1-.42,4.5c-.35,1.34-1.08,2.54-1.55,3.84-.91,2.52-1,5.41-2.51,7.52a23,23,0,0,1-3.33,3c-2.21,2-3.65,4.76-5,7.47-2.34,4.54-4.7,9.16-5.76,14.21-2.07,9.79-9,17.74-14.81,25.67a52.65,52.65,0,0,0-4.62,6.88,21.27,21.27,0,0,0-2.27,10.39c.42,11.75-2.6,23.21-3.84,34.9-.55,5.12-1.07,10.19-1.3,15.4s-.1,10.43-.41,15.63c-.75,13.13-4.16,25.91-4.92,39,1.52,1.64,1.32,4.81.22,6.81s-3.48,3.72-3,6a5,5,0,0,0,1,1.93,19.81,19.81,0,0,0,4.58,4.86,17.32,17.32,0,0,0,7,2.25c12.52,2,25.65,2.32,37.47-2.47-1.14-4.88,1.22-10.07,2.36-15a39.42,39.42,0,0,0,.83-7.43c.46-11.93-.56-24.34,3.84-35.34,1.07-2.67,2.44-5.19,3.58-7.83a49.2,49.2,0,0,0,3.09-28.5,11.53,11.53,0,0,0,6.43-3.72,29.84,29.84,0,0,0,5-7.72,40.84,40.84,0,0,1,2.26-4.6,32.06,32.06,0,0,1,3.51-4.26c8.19-9.07,13.7-20.4,19.11-31.55,2.57.28,3.37,3.22,3.83,5.94a38.91,38.91,0,0,0,5,13.49c1.15,1.91,2.47,3.72,3.71,5.57,10.25-5.37,21.35-8.91,32.22-12.87,7.36-2.68,14.64-5.53,21.94-8.33A9.29,9.29,0,0,1,778.35,382.27Z" transform="translate(-340.36)"/><path class="cls-9" d="M783.63,485.53a34.53,34.53,0,0,1-1.44-17.77c2.37-13.11-1.17-26.65.94-39.81.71-4.25,1.65-8.51,1.74-12.82a60.18,60.18,0,0,0-1.16-11.31A135.19,135.19,0,0,0,780.06,387c-8.63.19-17.26.49-25.9.63-11.62.18-23.26-.31-34.75,1.42q-.17,2.18-.51,4.32a106.84,106.84,0,0,0,2.81,40.3c1.2,4.66,2.72,9.18,3.95,13.86,1.87,7,3.16,14.21,4.44,21.39,1.41,7.79,2.79,15.63,2.81,23.61,0,5.24-.58,10.53.08,15.71s2.84,10.4,7.07,13c-.28,1.64-.76,3.34-1,5,2.92,3.78,7.36,5.92,11.82,7.44,10.57,3.61,22.49,4.24,33.07-.22a10.74,10.74,0,0,1-1.3-7.51c.58-3.25,2.65-6.42,2.38-9.56s-2.7-5.78-2.52-8.95a14.22,14.22,0,0,1,1.25-4.23,28.09,28.09,0,0,0,1.8-9,16.33,16.33,0,0,0-.26-3.89A35.8,35.8,0,0,0,783.63,485.53Z" transform="translate(-340.36)"/><g id="Capa_12" data-name="Capa 12"><rect class="cls-10" x="576.35" y="120.02" width="7.91" height="54.42" rx="3.96" transform="translate(-12.29 -395.73) rotate(50.85)"/></g><g id="Capa_11" data-name="Capa 11"><path class="cls-4" d="M602.29,171.55c-2.59-2.62-5.28-5.43-6.16-9-.79-3.21,0-6.62,1.34-9.64,1.06-2.43,2.51-5,1.54-7.51-.64-1.64-2.22-2.69-3.71-3.65l-8-5.08a6.87,6.87,0,0,0-4-1.48,6.67,6.67,0,0,0-2.64,1c-1.44.8-11,7.73-11.59,8.91a10.13,10.13,0,0,0-.92,3.71,13.4,13.4,0,0,0,.1,4.64c.74,3,3.21,5.17,5,7.64,2.44,3.34,3.75,7.35,5,11.3s2.45,8,4.76,11.41,5.89,6.25,10,6.58a1.88,1.88,0,0,0,1.16-.19,2,2,0,0,0,.7-1.1c2.25-6.57,6.35-10.24,7.29-17.12Z" transform="translate(-340.36)"/></g><g id="Capa_5" data-name="Capa 5"><path class="cls-7" d="M712.47,192.51c1.55,2.07,3.32,9.39,3.83,13.31.39,2.94-1.34,12.19-2.69,20.08-1.58,9.26-7.78,14.87-10.22,17.36s-9.34,5.28-19.09,7c-7.52,1.31-14.19-1.79-17.08-2.87-.34.12-1.28-2.17-2.17-4.6" transform="translate(-340.36)"/></g><g id="Capa_9" data-name="Capa 9"><path class="cls-8" d="M713.61,383.29v.25h0c-5.45,11.15-11,22.48-19.24,31.55a31.51,31.51,0,0,0-3.54,4.26,41,41,0,0,0-2.28,4.6,29.94,29.94,0,0,1-5,7.72l-6.88,3.62,21.84-120Z" transform="translate(-340.36)"/></g><path class="cls-8" d="M708.56,214.1a41.32,41.32,0,0,1-6.53,5.72c-6.6,5-13,9.72-19.41,15q-7.74,6.31-15.72,12.36a16.22,16.22,0,0,1-1.58-3.88c-.64-3,.24-6,0-9-.24-2.65-1.37-5.13-1.93-7.72a36.69,36.69,0,0,1-.29-10.2c.25-4,1.12-8.13.78-12.08a46.68,46.68,0,0,1,12.61-36l.23-.23a18.48,18.48,0,0,1,3.4-1.52,12.11,12.11,0,0,1,10.58,1.28,72.17,72.17,0,0,1,14.4,14.12,56.45,56.45,0,0,1,6.06,8.21A21.73,21.73,0,0,1,708.56,214.1Z" transform="translate(-340.36)"/><path class="cls-7" d="M639.4,227.46l-.12-.29c-4.51-9.64-13.39-16.56-18.76-25.75-2.31-4-3.94-8.29-6.32-12.2-2.21-3.64-5-6.83-7.31-10.48s-4-7.77-3.61-12c-6.68,1.86-13.33,4.28-18.93,8.36s-9.82,10.82-8.91,17.68c.32,2.44,1.4,4.94,3.51,6.17a18.41,18.41,0,0,1,3.2,1.68,7,7,0,0,1,1.67,2.81q10,25.2,22.26,49.39C617.15,244.3,628.19,235.77,639.4,227.46Z" transform="translate(-340.36)"/><path class="cls-7" d="M710.2,185.15a56.45,56.45,0,0,0-6.06-8.21,72.17,72.17,0,0,0-14.4-14.12,12.07,12.07,0,0,0-10.58-1.23,22.94,22.94,0,0,0-9.11,6.07,42.55,42.55,0,0,0-6.43,8.49c-1.7,3-3,6.14-4.7,9.13-3,5.35-6.92,10.07-10.86,14.75-2.45,2.91-4.93,5.86-8.07,8s-6.65,3.45-8.78,6.42c-.67.94-1.15,2-1.81,3-.12.18-.26.34-.39.51,10,9.87,20.1,19.54,30.21,29.25q11.4-8.4,22.4-17.34c6.43-5.24,12.81-9.93,19.41-15a41.32,41.32,0,0,0,6.53-5.72A21.73,21.73,0,0,0,710.2,185.15Z" transform="translate(-340.36)"/></g><g id="Capa_10" data-name="Capa 10"><path class="cls-7" d="M606,249.54c-.34.26-.2,2.94.08,3.27A104.25,104.25,0,0,0,617,264c6.26,5.42,9.48,8.13,13.79,8.17,5.48,0,9.81-3.87,11.75-5.62,2.9-2.62,3.43-4.4,6.38-8.42a63.44,63.44,0,0,1,10.32-11L639,227.73c-5,3.83-10.13,6.26-15.15,10.09C618.13,242.19,611.75,245.16,606,249.54Z" transform="translate(-340.36)"/></g><circle class="cls-4" cx="324.64" cy="137.72" r="29"/><g id="Capa_3" data-name="Capa 3"><path class="cls-3" d="M650.88,119.9c-1.73.28-3.2,1.45-4.84,2.1-2.22.87-7-2-7.52-2.65-1.34-1.86-2.85-4.8-2-7,1.19-3.15,4.92-3.77,7.13-6.13s3.06-6.71,6-8.17c3.6-1.81,7.63,1.35,11.57,1.19,3.48-.14,7.55-2.66,10.9-1.72,3.59,1,5.11,4.38,8.4,6.32,2.71,1.59,8.59-.51,11,1.53s1.71,7.89,3.58,10.38c2.11,2.93,5.16,4.73,6.23,8.25s-.73,7-.45,10.65c.34,3.1,1.42,6,.68,9s-1.19,3.4-7.5,3.4c-2.86,1.46-4.72,6-7.61,4.56s-2.49-5-5-7.11c-1.12-1.08-3.48.22-4.94-.34-1.25-.45-1.23-4.28-3.23-6.74a7.61,7.61,0,0,0-3.7-2.62c-2.64-.86-7-2.58-7.19-4.09-.41-4,1.26-2.79.17-6.47-.71-2.41-7.75.41-7.91-1.77C653,120.88,652.43,119.65,650.88,119.9Z" transform="translate(-340.36)"/></g><g id="Capa_7" data-name="Capa 7"><path class="cls-9" d="M696.85,167.57c-1.88-.48-9.54-1.84-19.74.44-6.38,1.42-9.18,3.4-11.11,5.29a24.39,24.39,0,0,0-5.36,8.31,45.15,45.15,0,0,1,6.64-4.74,38.53,38.53,0,0,1,14.13-5.05,36.51,36.51,0,0,1,13.86.92,41.13,41.13,0,0,1,13.25,6.17l-6.3-9.53A37.14,37.14,0,0,0,696.85,167.57Z" transform="translate(-340.36)"/></g><g id="Capa_8" data-name="Capa 8"><path class="cls-7" d="M743.28,198c-2.27-3.86-4.51-7.74-6.82-11.57a57.33,57.33,0,0,1-3.17-5.78,5.31,5.31,0,0,1-.77-1.06,27.16,27.16,0,0,1-2.41-3.72c-10.64-11-24.63-19.83-40.08-19.76-4.62,1.57-8.18,4.45-9.21,5.89l13.52,5.48a26.87,26.87,0,0,1,10,3.47c5.51,3.25,8.59,7.67,11.48,11.92,3.23,4.74,5.32,9.58,9.36,19.06,2.12,4.95,3.75,9.1,4.84,11.92a29.21,29.21,0,0,0,15.26-3.58,27,27,0,0,0,2.36-1.46C746.16,205.24,744.75,201.62,743.28,198Z" transform="translate(-340.36)"/></g></g><g id="Capa_15" data-name="Capa 15"><path class="cls-7" d="M607.74,107.58c-1.85-2.2-3.81-4.3-5.66-6.5l-10.82,9.14c1.51,1.93,4,4.62,5.52,6.55C597.48,116.17,607.74,107.58,607.74,107.58Z" transform="translate(-340.36)"/><path class="cls-7" d="M617.74,142.63c1.31-1.91,4.08-5.95,3.08-11.17-1.09-5.76-4.21-10.1-5.23-11L605.44,109c0,.31-4.47,3.64-7,5.67a13.15,13.15,0,0,1,2.32,2.5c.86,1.24,1.84,2.76,2.21,3.4.89,1.55-.38,2.26-1.42,3.24-2.76,2.62-5.28,4.39-6.24,5.36l5.64,6.71,4.79-4.09a5.05,5.05,0,0,1,3.65-1c2.4.43,3.47,3,3.83,3.8a10.31,10.31,0,0,1,1.08,6.42c-.18,1.87-1.26,4.11-2,7.13A21.93,21.93,0,0,0,617.74,142.63Z" transform="translate(-340.36)"/></g><g id="Capa_16" data-name="Capa 16"><path class="cls-11" d="M658.43,247.85l6.78-5.16c.06.38.15.79.26,1.22a12.08,12.08,0,0,0,1.43,3.27l-8.74,6.69Z" transform="translate(-340.36)"/></g><g id="Capa_17" data-name="Capa 17"><path class="cls-11" d="M658.16,253.87c-1.59,1.78-3.22,3.7-4.86,5.76q-2.25,2.83-4.18,5.54l3.17-.52.16.29,5.09-4.37c0-.75,0-1.53.07-2.35A34.81,34.81,0,0,1,658.16,253.87Z" transform="translate(-340.36)"/></g><g id="Capa_20" data-name="Capa 20"><rect class="cls-12" x="214.84" y="115.77" width="1.32" height="1.83"/><rect class="cls-13" x="216.82" y="115.03" width="0.06" height="3.47"/></g></svg>