<svg xmlns="http://www.w3.org/2000/svg" viewBox="0 0 878.87 415.26"><defs><style>.cls-1{fill:#ddd;}.cls-2{fill:#5b6470;}.cls-3{fill:#c8a092;}.cls-4{fill:#efd8cf;}.cls-5{fill:#bcaab8;}.cls-6{fill:#010606;}.cls-7{fill:#00bfa6;}.cls-8{fill:#dce8ef;}.cls-9{fill:#3f3d56;}.cls-10{fill:none;stroke:#000;stroke-miterlimit:10;}.cls-11{fill:#f9f9f9;}.cls-12{fill:#cbcbcb;}.cls-13{fill:#e8d585;}.cls-14{fill:#edcfc3;}.cls-15{fill:#eac3c3;}.cls-16{fill:#2f2e41;}.cls-17{fill:#60567a;}</style></defs><g id="Capa_28" data-name="Capa 28"><ellipse class="cls-1" cx="557.1" cy="526.6" rx="448.78" ry="132.66" transform="translate(-216.94 -141.78) rotate(-12.28)"/></g><g id="Capa_1" data-name="Capa 1"><g id="Capa_6" data-name="Capa 6"><path class="cls-2" d="M413.91,501a76.51,76.51,0,0,0,12.6,37.4,60.67,60.67,0,0,0,9.8,11.3,63.41,63.41,0,0,0,30.3,14.6,64.16,64.16,0,0,0,9.41,1,55.33,55.33,0,0,0,7.39-.2c11.38-1.84,26.32-132-8.15-143.18-7.74-2.51-21.69-.2-47.66,29.61" transform="translate(-117.66 -272.34)"/><g id="Capa_10" data-name="Capa 10"><path class="cls-2" d="M564,384.5a137.62,137.62,0,0,1,7.36-15.32A139.23,139.23,0,0,1,579.74,356h72.1c2.34,0,20.4-.43,31.42-15.1a37.87,37.87,0,0,0,7.33-20.66l53.3,3.5a64.76,64.76,0,0,1-8.43,26.33c-4.9,8.42-8.71,15.06-11.85,17.89-8.34,7.51-18.64,10.32-24.82,12.81Z" transform="translate(-117.66 -272.34)"/></g><g id="Capa_13" data-name="Capa 13"><path class="cls-3" d="M665.81,353a21,21,0,0,0-7.13.23c-1.53.31-3.47.9-8.27,3.5-4.47,2.43-6.71,3.65-8.4,5.07-4.6,3.86-6.83,8.4-9.08,13a60.74,60.74,0,0,0-3.22,7.91l69.08-1.93c3.1-1.56,6.37-3.33,9.74-5.36,2.71-1.63,5.23-3.28,7.57-4.9-2.46-3.79-6.66-6-10.92-9-3.62-2.55-7-5.08-10.27-7.24" transform="translate(-117.66 -272.34)"/></g><g id="Capa_11" data-name="Capa 11"><ellipse class="cls-4" cx="558.93" cy="54.32" rx="21.38" ry="22.18"/></g><g id="Capa_12" data-name="Capa 12"><path class="cls-4" d="M677.9,360.18c-.87-.06-6.18-.47-9.32-2.46a5.68,5.68,0,0,1-2.25-2.3,5.18,5.18,0,0,1-.52-2.42c-.17-2.4-.34-6.34-.5-8.74,1.83,1.05,5,4.06,9.05,4.45a20.58,20.58,0,0,0,10.9-1.78,19.22,19.22,0,0,0,4.35-2.83,31.36,31.36,0,0,0,2,5,32.11,32.11,0,0,0,3.3,5.24,47.05,47.05,0,0,1-17,5.88Z" transform="translate(-117.66 -272.34)"/></g><g id="Capa_14" data-name="Capa 14"><path class="cls-5" d="M665.47,345.47a17.28,17.28,0,0,0,3.06,2.22s.73.41,1.48.75a20.49,20.49,0,0,0,8.67,1.41,15,15,0,0,0,8.83-3.12,12.84,12.84,0,0,0,2-2.37,19.5,19.5,0,0,1-4.39,2.75,22,22,0,0,1-8.63,1.48A23.45,23.45,0,0,1,665.47,345.47Z" transform="translate(-117.66 -272.34)"/></g><g id="Capa_15" data-name="Capa 15"><path class="cls-6" d="M658.25,315.52a13.85,13.85,0,0,0,5.25.78,14.58,14.58,0,0,0,8.84-3.7c2.18,1.94,4.06,3.48,5.46,4.59,4.74,3.79,6.75,4.87,7.59,5.3a31.29,31.29,0,0,0,4.59,1.9,9.83,9.83,0,0,1,1.2,2.91,10,10,0,0,1,.21,3.49,4.72,4.72,0,0,1,2.9-3c.48-.14,2.11-.32,2.85.62a2.08,2.08,0,0,1,.38,1.34c0,2.54-1.9,6.87-2.35,7.87a26.91,26.91,0,0,0,5.09-7c.31-.63.71-1.56.82-1.8.75-1.72,1.4-3.42,2.28-5.79a16.88,16.88,0,0,0,1.29-7.52c-.44-4.69-3.46-7.79-6.14-10.54-2.31-2.38-6.22-6.47-12.89-8.18-2.34-.6-10.62-2.09-16.49.61-4.76,2.18-6.23,5.44-8.12,8.83S658.9,313.33,658.25,315.52Z" transform="translate(-117.66 -272.34)"/></g><g id="Capa_2" data-name="Capa 2"><path class="cls-7" d="M964.61,380.3c-.3-4.6-.7-8.3-1-11a15.79,15.79,0,0,1-8.3-6.9c-4.3-7.4-.2-15.3,0-15.9a33.14,33.14,0,0,0-11.7-7.6,28.66,28.66,0,0,0-6.8-1.6q-68.7-4.65-137.5-9.4a52,52,0,0,0-18.1-16.5c-10.5-5.6-20.2-5.8-27.7-6-10.42-.29-38.3-2.26-57.47-2.86a43.32,43.32,0,0,1,5.58,6c1.87,2.44,3.12,5.51,3.1,7.37,0,3.55-.05,3.21-.73,5.22,7.54,1,22.13,1.18,30.14,2,.35,0,11.25,1.18,11.52.5s-3.32-5.8-3.32-7c0-.64-.12-2.34,1-2,2.65.68,6.1,2.35,6.14,4.25,0,1.16.34,15-.32,15.77a37,37,0,0,1-.79,7,5,5,0,0,1-.22,4c-.32.65-.65,1.28-1,1.88a3.71,3.71,0,0,1-.71,1.87l-.06.09c.38.95-.22,2.5-.48,3.61a3.62,3.62,0,0,1-3,3.08c-.32.71-.64,1.41-1,2.1,0,1-1.15,2.07-1.77,2.84-.44,1.29-.66,2.24-2.3,2.78-1.83,2.56-4.93,4.56-8.16,6.06a11.54,11.54,0,0,1-8.64,4.78c-3.32,2.28-7.93,4.35-12,4.18a13.43,13.43,0,0,1,.43,1.9l-.13,4.3c6.91-1.77,14.66-4,21.87-4.36,8.31-2.38,16.51-4.48,24.93-6.48,8.93-2.12,18-4.37,27-5.56.93-.54,1.86-1.09,2.77-1.65,5-3.13,9.65,3.88,6.19,7.68a2.8,2.8,0,0,1,.13.41,23.52,23.52,0,0,1,.59,3.1c1,.8-.23,9.19-.23,10.85,0,7.14-.15,5.45-2.1,12.36-.39,1.39.56,3.87-.4,4.43-.37,1.55-.81,3.08-1.33,4.58-1.28,5.75-2.7,11.54-5.68,16.64a4.63,4.63,0,0,1-.25.77,51.21,51.21,0,0,1-4.71,11.18,4.79,4.79,0,0,1-.35,3.94c-2.08,3.95-3.46,8-6,11.65-.15,1.18-.31,2.35-.46,3.53a5.24,5.24,0,0,1-2.85,4.09,4.39,4.39,0,0,1-2.87,1.76,212.79,212.79,0,0,1-22.25,2.71c-.52.23-1,.48-1.58.69a4,4,0,0,1-3.41-.22l-2.58.26c-9.3,1-18.57,2.31-27.87,3.34s-18.63,2.51-27.95,3.85c-6.78,1-13.86.84-21,1.74-2.19.27-4.67,1.6-6.08.55q-4.65.69-9.33,1.23l-3.9,1.16a4.37,4.37,0,0,1-3.59-.41c-9.68.88-19.22,3-28.92,3.6a7,7,0,0,1-1,.74,5.34,5.34,0,0,1-3.86.5,5,5,0,0,1-3-2.3,5.08,5.08,0,0,1-.51-3.85,5.14,5.14,0,0,1,.39-.95c-.89-.57-.4-2.37-.59-3.72-.92-6.58-2.32-12.3-2.7-18.91,0-.31-.09-.62-.13-.93-.26-1.41-.55-2.82-.85-4.23-.25-1-.55-2-.88-3a4.61,4.61,0,0,1-.17-2.67c-.15-1-.28-2-.35-3.08a4.64,4.64,0,0,1,.36-2.3c-.58-3.3-1.13-6.6-1.38-10a4.88,4.88,0,0,1,.08-1.45c-2.54-12.9-1.77-26.2-1.51-39.35-4.93-1.1-10.16-2.92-15.27-2.89-2,0-12.95,1-13.71-.35-4.9-.13,0-1.18-4.91-1.26-14.85-.24-29.6,1.53-44.45,1.62a4.5,4.5,0,0,1-3.93-1.93l-1.89.73a4,4,0,0,1-3.94-.37,5.46,5.46,0,0,1-2.15.55,5,5,0,0,1-3.31-1.26c-6,.51-11.7-.83-15.9-5.07a18,18,0,0,1-9-6.72c-.12-.17-.07-.09,0,0-.38,0-2,.65-2.27.53l-1.41-.8c-1.78,1.27-1.85,2.35-6.75,8.62-6.84,6.17-8.8,7.92-15.83,12.77-11.9,8.22-8.68,6.16-20.57,14.16-10.44,7-37.94,19-51.94,23.5-6.54,2.11-34.48,11.29-41.36,11.49-2.17.06-7.42-.5-11.1,0-17.61,2.35-39.2,3.17-56.74,0-8.83-1.61-17.29-4.7-25.66-7.88a76.16,76.16,0,0,1-11.64-5.36c-1.74,1.94-3.28,3.75-4.57,5.33l-3.48,4.41a33.41,33.41,0,0,0-2.91,4.47c-1.39,2.34-3.84,6.24-8.5,13.07.85,7.24,1.74,14.48,2.57,21.72s1.66,14.58,2.56,21.73a27.52,27.52,0,0,0,3.67,13,80.29,80.29,0,0,0,16.6,9.4c12.1,5,36.63,11,42,12.2,10.2,2.33,17.1,2.7,19.7,2.6,12.9-.7,54.4-.4,111.7,0a189.47,189.47,0,0,1,7.4-34.2c5.3-16.8,11.8-37.3,29.9-55.1,5-4.9,13.6-13.2,27.4-18.9,6.2-2.5,32.3-13.3,57.9-.3,17.9,9.1,25.9,25,28.8,31,15.2,31.5,2,63.1-.5,68.8,18.7-4.9,44.8-11.2,76.3-17.1,34.5-6.5,60.2-9.8,92.2-13.8,30.4-3.8,70.6-8.3,118.6-12.2,1.2-10.2.9-27.5,7-49.5,4.4-15.9,11.1-36.7,31.8-46.8,20-9.8,48.7-7.6,63.2,9,10,11.4,10.6,26.4,11.2,39.7a99.82,99.82,0,0,1-4.8,35c2.7-7.8,11.8-34.8,12.5-58.4C965.71,406.9,965.61,394.6,964.61,380.3Z" transform="translate(-117.66 -272.34)"/></g></g><g id="Capa_18" data-name="Capa 18"><path class="cls-7" d="M469.3,370.1c-18.85-18.63-38.84-31.67-52.59-39.93a246.07,246.07,0,0,0-50-23.15,288.63,288.63,0,0,0-53.45-11.19c-13.64-1.36-42.08,3.36-50.06,6.71,13.14.89,59.42,3.28,81.38,9.93,15.37,4.65,26.29,9.64,56.17,24.17,12,5.83,47.41,26.14,62.68,33.58.21.1.3-.6,0,0-.45.89-1,1.89-2,3.8-.57,1.63-7.83,11.86-9.4,13.14,1.57-1.28,11.42-8.82,12.31-11.37,2.73-2.68,2.73-2.68,3.48-5A1.25,1.25,0,0,1,469.3,370.1Z" transform="translate(-117.66 -272.34)"/></g><g id="Capa_19" data-name="Capa 19"><path class="cls-2" d="M227.27,427.12a158.11,158.11,0,0,1,76.88-46.77c11.34-3,20.32-4.07,35.93-5.36,31.79-2.62,57.08-3.41,68.11-3.73,17.59-.53,33.35-.54,55.2-1-3,6-7.41,12.77-10.69,16.08-10.84,10.94-17.43,13.87-29.17,20.49-20.95,11.81-37.11,17.5-60.68,25.61-35.33,12.16-63.37,10-69.37,10.05a150.28,150.28,0,0,1-20.18-.71,121.56,121.56,0,0,1-23.93-5.46A145,145,0,0,1,227.27,427.12Z" transform="translate(-117.66 -272.34)"/></g><g id="Capa_20" data-name="Capa 20"><path class="cls-2" d="M263.52,302.6a24.58,24.58,0,0,0-9.62,5.66c-1,.9-3.54,2.63-4.34,3.53,2.16,1.49,7.23,5.32,11.06,7.32a201.74,201.74,0,0,0,35.75,13.79c14.22,4,14.85,4.81,36.94,11.06,38.26,10.83,39.22,12.19,47.83,14.33,11.15,2.77,43.82,11.47,50.21,12.54,10.1-.36,21.93-.25,32-.61-9.27-5.08-42.37-23.23-57.12-30.74-10.54-5.37-29.29-15-44.93-21.09-23.95-9.32-39.27-10.5-54.53-12.41C294.35,304.43,286.45,304,263.52,302.6Z" transform="translate(-117.66 -272.34)"/></g><g id="Capa_17" data-name="Capa 17"><path class="cls-2" d="M846.69,459.16a48.19,48.19,0,0,0,14.8,24.07,49,49,0,0,0,18.07,9.5,50.44,50.44,0,0,0,17.65,1.77,47.54,47.54,0,0,1-9.1-2.28,49.65,49.65,0,0,1-13.74-7.63,51.23,51.23,0,0,1-13.52-16.34c-4.71-9-5.46-16.93-5.9-22.13a64.78,64.78,0,0,1,2-22.59c1.44-5,4.26-14.45,12.57-22.94a49.75,49.75,0,0,1,28-14c-2.76-.1-5.7-.1-8.8,0-1.84.08-3.63.21-5.34.36a48.75,48.75,0,0,0-7.51,4.54c-1.65,1.21-8.95,6.74-15.54,18.57-3.81,6.84-5.46,12.34-7.66,19.83A182.25,182.25,0,0,0,846.69,459.16Z" transform="translate(-117.66 -272.34)"/><path class="cls-2" d="M912.88,381.24c3.13.25-16.82-1.71-29.47,5.76-2,1.18,36.58,1.12,38.24,2.73a49.25,49.25,0,0,1,10.8,6.1,49.89,49.89,0,0,1,16.16,20.81c3,7.3,3.39,13.55,3.8,19.53a82.15,82.15,0,0,1-.2,13.33q.62,9.88,1.22,19.75a100.67,100.67,0,0,0,3.16-13.3,107.47,107.47,0,0,0,1-25.4c-.92-12.22-1.94-18.07-5.17-25.63-3.78-8.83-13-15.3-15.58-16.92A44.53,44.53,0,0,0,912.88,381.24Z" transform="translate(-117.66 -272.34)"/></g><g id="Capa_16" data-name="Capa 16"><path class="cls-2" d="M476.36,424.9a67.58,67.58,0,0,1,20-1.65,65.62,65.62,0,0,1,23.26,5.85c16,7.63,24.09,20.32,27,25a71.26,71.26,0,0,1,9.87,28.79,78.18,78.18,0,0,1,0,20.92H564a70,70,0,0,0,1.08-18.23,59.9,59.9,0,0,0-3.19-20,75,75,0,0,0-14.53-24.75,62.36,62.36,0,0,0-29.28-18.5A63.83,63.83,0,0,0,476.36,424.9Z" transform="translate(-117.66 -272.34)"/></g><g id="Capa_5" data-name="Capa 5"><g id="Capa_8" data-name="Capa 8"><path class="cls-8" d="M469.3,370.1c5.73-2.63,17.82-7.37,30.16-13.42,38.87-19.06,52.35-28.23,78.86-37.6a288.38,288.38,0,0,1,31.59-9.18v15.2A142.15,142.15,0,0,0,578,358.27a153,153,0,0,0-14,26.23c-17-.65-30.37-.2-40,0-13.54.28-20.84.36-31.43-2A52.14,52.14,0,0,1,469.3,370.1Z" transform="translate(-117.66 -272.34)"/></g><g id="Capa_9" data-name="Capa 9"><path class="cls-9" d="M564,384.5l25-.69,109.55-3,.18,0c4.92-2,11.38-6.49,12.69-7.18l0,0,6.65-4.42,0,0c.29-.24,4.6-3.75,5.92-4.51l.07-.05C726,363,727,362.16,727.1,362l0,0a69.39,69.39,0,0,0,13.41-23.37,71,71,0,0,0,3.34-14.87s-.86-4.51-1.14-5.47c-.45-1.59-1.56-4.15-.17-3.75,5.65,1.59,3.39.72,4.42,1.12a16.53,16.53,0,0,1,2.59,1.37.49.49,0,0,1,.24.35c.67,4.91-.23,24.22-1.47,29.27-3.22,9.73-4.2,13-10.12,19C733.89,370,723.37,378,713,384c-.51.29,6.06-1.52,6.63-1.66,25.82-6.13,45-10.34,70.86-16.47a1.48,1.48,0,0,1,1.79,1.11A59,59,0,0,1,794,384.05c-.31,7.63-2.51,19-5,27.81v0c-4.48,21.94-14.13,41-20.63,52.2a.51.51,0,0,1-.37.25c-56.42,7.46-111.72,12.34-168.14,19.8a.52.52,0,0,1-.57-.45c-1.54-14.08-3.79-27.9-5.7-41.93-2.27-16.74-2.84-34.15-4.38-51.3a.51.51,0,0,0-.4-.45Z" transform="translate(-117.66 -272.34)"/></g><path class="cls-10" d="M381.81,238.4" transform="translate(-117.66 -272.34)"/><path class="cls-11" d="M379.19,311.55c-4.81-2-13.54-4.8-14.34-5.1-10.19,0-23.18,1.7-26.62,4.42,8.39,1.34,9.77,2.58,16.56,5.08,14.15-.87,25.28.81,42,3.38C395.67,319,386.24,314.48,379.19,311.55Z" transform="translate(-117.66 -272.34)"/><path class="cls-11" d="M276.26,298.5c-2.44.57-11.66,3.12-13.1,4.12a9.23,9.23,0,0,0,2.49.15,144.43,144.43,0,0,1,31.87-5.55c-.59.1-.47-1.1-.47-1.1C285.31,296.77,279.88,297.66,276.26,298.5Z" transform="translate(-117.66 -272.34)"/><path class="cls-12" d="M207.71,455.7a85.75,85.75,0,0,0,59.8,12.6,57.44,57.44,0,0,1,17.9,14c5.4,6.3,10.4,12.2,9.7,20-.8,9.1-8.9,14.8-11,16.2a133.71,133.71,0,0,1-41.6-7.9,137.17,137.17,0,0,1-29.7-15.3" transform="translate(-117.66 -272.34)"/><path class="cls-9" d="M394.51,463h-11.3a84.55,84.55,0,0,0-35.9,63.6h18.6a117.72,117.72,0,0,1,7.6-29.7A120,120,0,0,1,394.51,463Z" transform="translate(-117.66 -272.34)"/><path class="cls-9" d="M799.31,328.2A198.15,198.15,0,0,1,779,343.5a187,187,0,0,1-22.2,12.5,38.12,38.12,0,0,0,18.2-1.9,38.93,38.93,0,0,0,18.2-13.9A37.44,37.44,0,0,0,799.31,328.2Z" transform="translate(-117.66 -272.34)"/><path class="cls-11" d="M940.55,338c-.36-.09,3.33,2,5.56,5.63l.22.37a23.85,23.85,0,0,1,2.28,6.63c1.3,5.6.3,5.9,1.3,9.1,1.4,4.48,7,9.78,7,9.8h0a28.11,28.11,0,0,0,7.3,5.6c-.17-1.86-.35-4.17-.52-6-1.16-.34-3.62-1.43-6.72-5.2a10,10,0,0,1-2.27-6.47,15.27,15.27,0,0,1,1.32-6.61c0-2.52.18-4.28-.59-5.21-1.85-2.27-4.25-3.92-8.59-5.79C945.81,339.35,942.18,338.36,940.55,338Z" transform="translate(-117.66 -272.34)"/><ellipse class="cls-9" cx="693.67" cy="72.63" rx="11.82" ry="11.09"/></g><g id="Capa_3" data-name="Capa 3"><g id="Capa_5-2" data-name="Capa 5"><line class="cls-12" x1="439.24" y1="231.76" x2="446.34" y2="231.46"/><path class="cls-12" d="M952.21,449.5c.4,3.3.8,6.9.9,10.7s.1,7.4-.1,10.7" transform="translate(-117.66 -272.34)"/></g></g><g id="Capa_2-2" data-name="Capa 2"><g id="Capa_4" data-name="Capa 4"><g id="Capa_4-2" data-name="Capa 4"><path class="cls-12" d="M905.71,386.4a47.94,47.94,0,0,0-29.1,8.2c-10.6,7.3-15,17-17.2,21.9a59,59,0,0,0-4.2,31.6c.8,6.4,2.4,18.4,11.9,29.5a50.14,50.14,0,0,0,21.8,14.9,48.59,48.59,0,0,0,32.4-.9,47.8,47.8,0,0,0,22.2-18.3c9.7-14.2,9.4-28.9,9.1-34.9-.3-6.7-.9-22.1-12.8-35.4C937.31,400.1,925.31,387.3,905.71,386.4Z" transform="translate(-117.66 -272.34)"/><path class="cls-12" d="M454.37,436.61a72.65,72.65,0,0,0-19.16,24,71.67,71.67,0,0,0-4.8,52.9c1.9,7.4,4.7,17.7,13,28.2a61.33,61.33,0,0,0,52.9,23.6,63.27,63.27,0,0,0,34.5-12.8c14.8-11.4,19.9-26.3,22.3-33.7,1.6-4.8,10.7-34.2-5.5-62.5-3-5.3-11.3-19.4-28-27.2a66.37,66.37,0,0,0-23.9-5.9,67.54,67.54,0,0,0-19.35,1.7A69,69,0,0,0,454.37,436.61Z" transform="translate(-117.66 -272.34)"/><path class="cls-10" d="M897.21,494.5" transform="translate(-117.66 -272.34)"/><path class="cls-10" d="M869.91,489.2" transform="translate(-117.66 -272.34)"/><path class="cls-10" d="M854.41,475.6" transform="translate(-117.66 -272.34)"/><path class="cls-10" d="M846.81,458.3" transform="translate(-117.66 -272.34)"/><path class="cls-6" d="M491.11,465.6c-17.2,0-30.5,16.4-28.4,32.9,1.8,13.6,13.9,25,28.4,25,15.4,0,28.4-12.9,28.6-28.5C519.91,478.9,506.61,465.6,491.11,465.6Z" transform="translate(-117.66 -272.34)"/><path class="cls-12" d="M491,484.7a9.72,9.72,0,0,0-.5,19.4,9.71,9.71,0,1,0,.5-19.4Z" transform="translate(-117.66 -272.34)"/><path class="cls-6" d="M902.21,418.8c-12.7.2-22.5,11.8-21.4,24a22.1,22.1,0,0,0,21.7,20c11.9,0,21.7-10,21.8-22S914.21,418.6,902.21,418.8Z" transform="translate(-117.66 -272.34)"/><path class="cls-12" d="M902.21,432.9a7.73,7.73,0,0,0-7.2,8,7.61,7.61,0,1,0,7.2-8Z" transform="translate(-117.66 -272.34)"/><path class="cls-6" d="M491.11,487a7.48,7.48,0,0,0-7.1,7.1,7.35,7.35,0,0,0,6.6,7.6,7.36,7.36,0,1,0,.5-14.7Z" transform="translate(-117.66 -272.34)"/><path class="cls-6" d="M902.71,435.2a5.3,5.3,0,0,0-5.1,4.9,5.51,5.51,0,0,0,5,6,5.45,5.45,0,0,0,.1-10.9Z" transform="translate(-117.66 -272.34)"/><g id="Capa_6-2" data-name="Capa 6"><circle class="cls-12" cx="784.94" cy="157.06" r="1.5"/><circle class="cls-12" cx="793.94" cy="160.06" r="1.5"/><circle class="cls-12" cx="797.34" cy="169.16" r="1.5"/><circle class="cls-12" cx="792.64" cy="177.16" r="1.5"/></g><circle class="cls-12" cx="783.14" cy="179.16" r="1.5"/><circle class="cls-12" cx="775.74" cy="173.06" r="1.5"/><circle class="cls-12" cx="775.74" cy="163.46" r="1.5"/><circle class="cls-12" cx="373.24" cy="207.16" r="1.8"/><circle class="cls-12" cx="385.34" cy="211.16" r="1.8"/><circle class="cls-12" cx="389.74" cy="222.96" r="1.8"/><circle class="cls-12" cx="383.54" cy="233.96" r="1.8"/><circle class="cls-12" cx="371.14" cy="236.26" r="1.8"/><circle class="cls-12" cx="361.34" cy="228.26" r="1.8"/><circle class="cls-12" cx="361.24" cy="215.66" r="1.8"/></g></g></g></g><g id="Capa_23" data-name="Capa 23"><rect class="cls-3" x="327.37" y="365.52" width="36.64" height="51.48" rx="12" transform="translate(165.68 -399.44) rotate(34.6)"/></g><g id="Capa_24" data-name="Capa 24"><path class="cls-3" d="M326,375.48a24.47,24.47,0,0,0-4.34,10.24c-.6,3.75,1.08,6.77,4.12,5.69,2.54-.9.18-9.76,3.11-13.67s10.36-2,11.68-6.28c.48-1.56-2.48-2.1-5.86-1.34A15.58,15.58,0,0,0,326,375.48Z" transform="translate(-117.66 -272.34)"/></g><g id="Capa_26" data-name="Capa 26"><path class="cls-13" d="M364.91,372.7a12.83,12.83,0,0,1,4.52-.89c3.33,0,6,1.28,7,2.38a6.8,6.8,0,0,1,1.45,2.9c1.46,6,3.55,46.79,3.67,49.07l-4.24,1.55q-2.1-24-4.19-48c0-1.82-.28-3.14-1.45-3.83a3.18,3.18,0,0,0-2.21-.31Z" transform="translate(-117.66 -272.34)"/></g><g id="Capa_25" data-name="Capa 25"><rect class="cls-12" x="327.41" y="383.95" width="36.86" height="13.79" transform="translate(165.47 -399.6) rotate(34.6)"/><rect class="cls-12" x="363.77" y="367.93" width="5.49" height="3.31" transform="translate(-262.63 0.74) rotate(-34.55)"/><rect class="cls-3" x="364.16" y="373.78" width="5.49" height="2.16" transform="translate(160.12 -414.39) rotate(34.6)"/></g><g id="Capa_21" data-name="Capa 21"><g id="Capa_22" data-name="Capa 22"><path class="cls-14" d="M243.68,596c-.11,2.73-.22,5.45-.32,8.18a30.37,30.37,0,0,0,6.28,6.27c.66.48,1.45,1.68,2.88,1.87s1.4.3,1.84,0c1.54-1,2.89-3.33,4.24-8,.51-1.73.95-3.21,1.3-4.35q-.11-3.33-.19-6.66Z" transform="translate(-117.66 -272.34)"/><path class="cls-15" d="M181.51,578.65c-.1,2.73-.13,7.41-.23,10.14a24.27,24.27,0,0,0,5.62,5.59c.66.48,1.45,1.68,2.88,1.87s1.4.3,1.84,0c1.54-1,2.89-3.33,4.24-8,.51-1.73.5-2.19.84-3.34-.19-1.64,0-2.36.31-6.28C190.42,578.64,187.79,578.53,181.51,578.65Z" transform="translate(-117.66 -272.34)"/></g><polygon class="cls-9" points="146.32 320.3 123.47 324.1 115.61 237.3 151.54 236.02 146.32 320.3"/><polygon class="cls-9" points="84.67 306.3 61.46 309.03 53.62 204.49 93.07 155.55 84.67 306.3"/><path class="cls-15" d="M296.13,292.55l20.52-7c2.91-1,6.11.85,7.15,4.12a6.34,6.34,0,0,1,.21.86h0a6,6,0,0,1-3.42,6.79L298.14,306l-49.31,32.87-34.9,9.11-4.66-21.39Z" transform="translate(-117.66 -272.34)"/><path class="cls-9" d="M206.1,463.13c-10.06,11.5-16.74,35-27.74,42.69-2.35,1.62-4.93.58-5.19-2.21-2.22-23-3.28-52.42-4.07-71.18-.09-2.26-.11-8.77,2.19-8.45l57.44,12.52a3.6,3.6,0,0,1,1.87,6.34l-24,19.85A3.19,3.19,0,0,0,206.1,463.13Z" transform="translate(-117.66 -272.34)"/><path class="cls-9" d="M269.21,508.36c-10,8.74-16.63,6-35.11,10.49l-47-75.19,57-10.43Z" transform="translate(-117.66 -272.34)"/><path class="cls-16" d="M283.79,627.51,243,629.13c-5.22.21-5.49-4.61-4.51-10.12l3.64-16.07c13.91-2.48,12-2,19.1-3.16l12.84,12.29L284.63,614a6.69,6.69,0,0,1,5.26,6.71h0A6.61,6.61,0,0,1,283.79,627.51Z" transform="translate(-117.66 -272.34)"/><path class="cls-16" d="M219,610.4l-38,1.49c-4.86.19-5.12-4.24-4.2-9.3l3.2-14.88c9.88-1.9,4.06-.71,17.5-2.78L210,596.21l9.81,1.78a6.16,6.16,0,0,1,4.9,6.17h0A6.09,6.09,0,0,1,219,610.4Z" transform="translate(-117.66 -272.34)"/><ellipse class="cls-14" cx="286.86" cy="299.99" rx="21.84" ry="22.29" transform="translate(-234.08 125.89) rotate(-59.97)"/><polygon class="cls-14" points="143.98 59.02 122.69 41.67 148.82 24.63 164.09 40.09 143.98 59.02"/><path class="cls-9" d="M240.19,460.73c-24.76-5.64-64.23-48-68.9-24.17-.71,3.59-2.5-10.74-1.53-12.25,14.9-23.17,23.56-50.64,27.89-75a29.63,29.63,0,0,1,3.11-8.88c13.66-25.26,20.05-27.09,41.09-26.91l.37,0a65.69,65.69,0,0,1,13.15,2.66,3.27,3.27,0,0,1,.89.41c12.06,7.72,19,17.51,18.48,29.71a4.21,4.21,0,0,1-.12.78L244.26,458.32A3.44,3.44,0,0,1,240.19,460.73Z" transform="translate(-117.66 -272.34)"/><path class="cls-16" d="M285.26,303.07l-2.59-2.69a5.85,5.85,0,0,0-8.21-.26,4.5,4.5,0,0,0-.62.69h0l-7.59,6L256,300.53l7.15-16.35c7.17-11.76,22.71-15.36,34.71-8.06.48.29.94.59,1.4.91l.27.19c4.85,3.41,10.21,10.15,12.17,15.7l3.65,10.34a2.78,2.78,0,0,1-1.75,3.58,2.85,2.85,0,0,1-1.71,0L302.27,304Z" transform="translate(-117.66 -272.34)"/><path class="cls-14" d="M334.72,374.69c-2-.48-4.26.62-6.51,1.07a6.4,6.4,0,0,0-.38-2.49,1.58,1.58,0,0,0-1.45-.37c-.42.2-1.65.31-1.87.7a4.79,4.79,0,0,0-.54,2.26l-.11,1.7-33.09,13.16-21-42.79-21.48,6.22,16.9,28.34L279,409.84s32.39-16.09,42.26-19.57c1.06-.38,7.15-4.33,8-5.62a36.64,36.64,0,0,0,6-8C335.46,376.24,335.16,374.79,334.72,374.69Z" transform="translate(-117.66 -272.34)"/><path class="cls-9" d="M282.9,369.47c-8.85-2.85-17.66.23-26.44,6.13l-10.61-25.16c-2.64-6.27,1.26-13.62,8.72-16.42h0c6.83-2.56,14.33,0,16.76,5.76l.09.24Z" transform="translate(-117.66 -272.34)"/><g id="Capa_27" data-name="Capa 27"><path class="cls-17" d="M173.84,417.6c10,3.49,18.46,6,24.74,7.74,11.48,3.17,20.57,5.11,30.61,7.24,8.6,1.83,15.81,3.21,21,4.16l1-3.86c-10.57-2-21.64-4.32-33.14-7.18-15-3.72-29.05-7.85-42-12.14Z" transform="translate(-117.66 -272.34)"/><path class="cls-17" d="M282.9,369.47a23.75,23.75,0,0,0-13.27-.41,36.34,36.34,0,0,0-11.23,5.29l-.83-1.85a29.2,29.2,0,0,1,11.68-5.43,29.54,29.54,0,0,1,12.75.09Z" transform="translate(-117.66 -272.34)"/></g></g></svg>